<?xml version="1.0" encoding="UTF-8" standalone="no"?>
<svg
   width="32"
   height="32"
   fill="#000000"
   viewBox="0 0 256 256"
   version="1.1"
   id="svg1"
   sodipodi:docname="heterosexuality.svg"
   inkscape:version="1.4 (86a8ad7, 2024-10-11)"
   xmlns:inkscape="http://www.inkscape.org/namespaces/inkscape"
   xmlns:sodipodi="http://sodipodi.sourceforge.net/DTD/sodipodi-0.dtd"
   xmlns="http://www.w3.org/2000/svg"
   xmlns:svg="http://www.w3.org/2000/svg">
  <defs
     id="defs1" />
  <sodipodi:namedview
     id="namedview1"
     pagecolor="#505050"
     bordercolor="#eeeeee"
     borderopacity="1"
     inkscape:showpageshadow="0"
     inkscape:pageopacity="0"
     inkscape:pagecheckerboard="0"
     inkscape:deskcolor="#505050"
     showguides="true"
     inkscape:zoom="11.313709"
     inkscape:cx="16.661203"
     inkscape:cy="5.1707183"
     inkscape:window-width="1920"
     inkscape:window-height="1009"
     inkscape:window-x="-8"
     inkscape:window-y="-8"
     inkscape:window-maximized="1"
     inkscape:current-layer="svg1" />
  <circle
     style="fill:none;stroke:#000000;stroke-width:16;stroke-linecap:round;stroke-linejoin:round;stroke-miterlimit:4.5;stroke-dasharray:none;stroke-opacity:1;paint-order:markers stroke fill"
     id="path3"
     cx="157.84808"
     cy="127.99624"
     r="51.696186" />
  <circle
     style="fill:none;stroke:#000000;stroke-width:16;stroke-linecap:round;stroke-linejoin:round;stroke-miterlimit:4.5;stroke-dasharray:none;stroke-opacity:1;paint-order:markers stroke fill"
     id="circle3"
     cx="98.151917"
     cy="127.99624"
     r="51.696186" />
  <path
     id="path1"
     style="stroke-linecap:round;stroke-linejoin:round;stroke-miterlimit:4.5;paint-order:markers stroke fill"
     d="m 98.14954,171.68374 a 8,8 0 0 0 -8,8 v 21.15625 h -5.15625 a 8,8 0 0 0 -8,8 8,8 0 0 0 8,8 h 5.15625 v 5.15625 a 8,8 0 0 0 8,8 8,8 0 0 0 7.99999,-8 v -5.15625 h 5.15626 a 8,8 0 0 0 8,-8 8,8 0 0 0 -8,-8 h -5.15626 v -21.15625 a 8,8 0 0 0 -7.99999,-8 z" />
  <path
     id="path4"
     style="stroke-linecap:round;stroke-linejoin:round;stroke-miterlimit:4.5;paint-order:markers stroke fill"
     d="m 188.7892,97.147216 a 8,8 0 0 0 11.31371,0 l 16.47338,-16.473382 a 8,8 0 0 0 7.78922,7.501965 8,8 0 0 0 7.99914,-7.999145 V 61.570906 a 8,8 0 0 0 -0.19887,-1.72358 8.0008,8.0008 0 0 0 -0.18783,-0.607666 8,8 0 0 0 -0.36459,-1.005414 8.0008,8.0008 0 0 0 -0.34251,-0.629763 8,8 0 0 0 -0.64081,-0.950175 8.0008,8.0008 0 0 0 -0.35356,-0.441942 8,8 0 0 0 -0.8618,-0.795481 8.0008,8.0008 0 0 0 -0.49718,-0.408792 8,8 0 0 0 -1.49157,-0.828637 8,8 0 0 0 -1.67938,-0.464046 8.0008,8.0008 0 0 0 -0.54137,-0.05524 8,8 0 0 0 -0.83969,-0.08839 l -18.60573,-2.1e-5 a 8,8 0 0 0 -7.99914,7.999145 8,8 0 0 0 2.35333,5.6679 8,8 0 0 0 4.99394,2.276007 L 188.7892,85.833508 a 8,8 0 0 0 0,11.313708 z"
     inkscape:transform-center-y="-51.477251"
     inkscape:transform-center-x="-51.521442" />
</svg>
