<?xml version="1.0" encoding="UTF-8" standalone="no"?>
<!-- Created with Inkscape (http://www.inkscape.org/) -->

<svg
   width="84.318008"
   height="45.941044"
   viewBox="0 0 22.30914 12.155234"
   version="1.1"
   id="svg1"
   inkscape:version="1.4 (86a8ad7, 2024-10-11)"
   sodipodi:docname="logo-full.svg"
   xmlns:inkscape="http://www.inkscape.org/namespaces/inkscape"
   xmlns:sodipodi="http://sodipodi.sourceforge.net/DTD/sodipodi-0.dtd"
   xmlns="http://www.w3.org/2000/svg"
   xmlns:svg="http://www.w3.org/2000/svg">
  <sodipodi:namedview
     id="namedview1"
     pagecolor="#505050"
     bordercolor="#eeeeee"
     borderopacity="1"
     inkscape:showpageshadow="0"
     inkscape:pageopacity="0"
     inkscape:pagecheckerboard="0"
     inkscape:deskcolor="#505050"
     inkscape:document-units="mm"
     showguides="true"
     inkscape:zoom="8"
     inkscape:cx="37.0625"
     inkscape:cy="-7.5625"
     inkscape:window-width="1920"
     inkscape:window-height="1009"
     inkscape:window-x="-8"
     inkscape:window-y="-8"
     inkscape:window-maximized="1"
     inkscape:current-layer="layer1" />
  <defs
     id="defs1" />
  <g
     inkscape:label="Layer 1"
     inkscape:groupmode="layer"
     id="layer1"
     transform="translate(-59.522982,-96.394427)">
    <text
       xml:space="preserve"
       style="font-style:normal;font-variant:normal;font-weight:100;font-stretch:normal;font-size:6.35px;font-family:Urbanist;-inkscape-font-specification:'Urbanist Thin';text-align:center;writing-mode:lr-tb;direction:ltr;text-anchor:middle;fill:#000000;fill-opacity:1;stroke:none;stroke-width:0.204787;stroke-miterlimit:4.5;paint-order:markers stroke fill"
       x="76.027634"
       y="107.84999"
       id="text1"><tspan
         sodipodi:role="line"
         id="tspan1"
         style="font-style:normal;font-variant:normal;font-weight:500;font-stretch:normal;font-size:6.35px;font-family:Urbanist;-inkscape-font-specification:'Urbanist Medium';fill:#000000;fill-opacity:1;stroke:none;stroke-width:0.204787"
         x="76.027634"
         y="107.84999">Nick</tspan></text>
    <path
       id="path8"
       style="-inkscape-font-specification:Parisienne;fill:#000000;fill-opacity:1;stroke:none;stroke-miterlimit:4.5;paint-order:markers stroke fill"
       d="m 64.974329,96.9238 c -0.159164,0.127813 -0.307475,0.265273 -0.444934,0.412378 -0.202572,-0.09164 -0.420819,-0.161573 -0.654741,-0.209806 -0.23151,-0.05064 -0.478695,-0.07596 -0.741556,-0.07596 -0.361735,0 -0.702973,0.03859 -1.023711,0.115755 -0.318326,0.07476 -0.611332,0.177251 -0.879016,0.307475 -0.265272,0.127813 -0.504017,0.276125 -0.716235,0.444934 -0.212218,0.16881 -0.391879,0.347266 -0.538985,0.535368 -0.144694,0.185691 -0.256833,0.373794 -0.336414,0.564307 -0.07717,0.190514 -0.115755,0.372587 -0.115755,0.54622 0,0.151928 0.02894,0.290594 0.08682,0.415995 0.05788,0.125404 0.135049,0.233924 0.231511,0.325564 0.09887,0.0892 0.213423,0.15915 0.343648,0.2098 0.130224,0.0483 0.267684,0.0724 0.412378,0.0724 0.144694,0 0.286976,-0.0157 0.426847,-0.047 0.139871,-0.0337 0.27492,-0.0772 0.405144,-0.13022 0.130224,-0.0555 0.255625,-0.11697 0.376204,-0.18449 0.12299,-0.0699 0.241157,-0.14228 0.3545,-0.21704 l -0.115755,-0.151934 c -0.0024,0.0024 -0.0205,0.01568 -0.05426,0.03979 -0.03135,0.02171 -0.07596,0.05064 -0.133842,0.08682 -0.05788,0.03377 -0.125402,0.07114 -0.202572,0.112144 -0.07717,0.0385 -0.160369,0.0747 -0.249597,0.10852 -0.08923,0.0337 -0.183279,0.0627 -0.282153,0.0868 -0.09646,0.0217 -0.194132,0.0326 -0.293006,0.0326 -0.127813,0 -0.245979,-0.0229 -0.3545,-0.0687 -0.10852,-0.0458 -0.202571,-0.10732 -0.282153,-0.18449 -0.07958,-0.07958 -0.142282,-0.171219 -0.188102,-0.274916 -0.04582,-0.103697 -0.06873,-0.213424 -0.06873,-0.329179 0,-0.178456 0.03738,-0.356912 0.112138,-0.535368 0.07717,-0.180867 0.184484,-0.353294 0.321944,-0.517281 0.139871,-0.166398 0.307476,-0.320739 0.502812,-0.463021 0.195337,-0.142283 0.411172,-0.266478 0.647505,-0.372587 0.236333,-0.106111 0.490754,-0.18931 0.763261,-0.249597 0.272507,-0.06029 0.555867,-0.09043 0.850078,-0.09043 0.241157,0 0.466638,0.02171 0.676444,0.06511 0.212218,0.041 0.408761,0.10008 0.589628,0.17725 -0.212218,0.24598 -0.403937,0.508841 -0.575159,0.788582 -0.168809,0.279742 -0.326766,0.565513 -0.473872,0.857312 -0.144694,0.2918 -0.282153,0.582394 -0.412378,0.871782 -0.127813,0.289393 -0.259244,0.566723 -0.394292,0.831993 -0.132636,0.26286 -0.272506,0.50642 -0.419612,0.7307 -0.144694,0.22186 -0.305063,0.41238 -0.481108,0.57154 -0.180867,-0.0482 -0.359323,-0.0904 -0.535368,-0.1266 -0.173632,-0.0386 -0.348471,-0.0579 -0.524515,-0.0579 -0.127813,0 -0.239952,0.012 -0.336414,0.0362 -0.09405,0.0241 -0.172428,0.0567 -0.235128,0.0977 -0.06029,0.041 -0.106113,0.0892 -0.137459,0.1447 -0.02894,0.0531 -0.04341,0.10974 -0.04341,0.17001 0,0.0507 0.01206,0.0989 0.03617,0.14469 0.02653,0.0482 0.06511,0.0904 0.115755,0.12661 0.05306,0.0362 0.120579,0.0639 0.202572,0.0832 0.08199,0.0217 0.179661,0.0326 0.293005,0.0326 0.27733,0 0.525723,-0.035 0.745175,-0.10491 0.221864,-0.0699 0.425641,-0.1676 0.611332,-0.293 0.241156,0.0651 0.493165,0.12419 0.756026,0.17725 0.26286,0.0555 0.540191,0.0832 0.831991,0.0832 0.327973,0 0.623389,-0.0374 0.88625,-0.11214 0.262861,-0.0724 0.496783,-0.17243 0.701766,-0.30024 0.204983,-0.13023 0.381027,-0.28216 0.528133,-0.45579 0.147106,-0.17604 0.267686,-0.36535 0.361736,-0.56792 0.09647,-0.20498 0.166399,-0.41961 0.209806,-0.64389 0.04582,-0.22428 0.06873,-0.44975 0.06873,-0.676444 0,-0.255626 -0.03256,-0.502812 -0.09767,-0.741557 C 66.018536,98.907543 65.92569,98.682061 65.8027,98.472255 65.682126,98.26199 65.532607,98.0705 65.354151,97.896867 65.178107,97.720823 64.97674,97.5701 64.750053,97.444698 c 0.103697,-0.13987 0.215836,-0.273712 0.336414,-0.401525 z m -0.336414,0.676444 c 0.183279,0.101285 0.346061,0.22307 0.488343,0.365353 0.142282,0.142283 0.261654,0.30024 0.358117,0.473873 0.09888,0.173632 0.173636,0.361735 0.224276,0.564306 0.05064,0.202572 0.07596,0.415995 0.07596,0.640271 0,0.388263 -0.05547,0.752413 -0.166398,1.092443 -0.10852,0.34003 -0.271301,0.63666 -0.488342,0.88987 -0.217041,0.25081 -0.487137,0.44976 -0.810287,0.59686 -0.32315,0.1447 -0.696943,0.21704 -1.121378,0.21704 -0.204984,0 -0.403938,-0.0205 -0.596863,-0.0615 -0.192925,-0.0386 -0.385851,-0.0844 -0.578776,-0.13746 0.195336,-0.16399 0.371381,-0.35691 0.528133,-0.57877 0.156751,-0.22428 0.301446,-0.46543 0.434082,-0.72347 0.135048,-0.26045 0.264067,-0.53296 0.387057,-0.81752 0.12299,-0.284569 0.248391,-0.571544 0.376204,-0.860932 0.127813,-0.289388 0.264067,-0.575158 0.408761,-0.857312 0.144694,-0.282153 0.305062,-0.549838 0.481107,-0.803052 z m 6.815088,0.42323 c -0.09405,0.08682 -0.190514,0.192926 -0.289388,0.318327 -0.09646,0.12299 -0.186897,0.24598 -0.271301,0.36897 -0.08199,0.12299 -0.154341,0.235128 -0.217041,0.336414 -0.06029,0.101289 -0.102493,0.17243 -0.126607,0.213423 h -0.633037 l -0.07235,0.188102 h 0.60048 c -0.142282,0.260449 -0.260449,0.50402 -0.3545,0.73071 -0.09164,0.22669 -0.165192,0.43167 -0.220658,0.61494 -0.01291,0.0421 -0.02199,0.0783 -0.03307,0.11783 l -0.02119,-0.0165 c -0.03376,0.053 -0.07476,0.11817 -0.122989,0.19534 -0.04823,0.0748 -0.102495,0.15433 -0.162781,0.23874 -0.05788,0.082 -0.120578,0.16398 -0.188102,0.24598 -0.06752,0.082 -0.13746,0.15552 -0.209807,0.22066 -0.06994,0.0651 -0.142282,0.11816 -0.217041,0.15916 -0.07235,0.041 -0.143487,0.0615 -0.213423,0.0615 -0.04823,0 -0.08802,-0.0108 -0.119373,-0.0326 -0.02894,-0.0241 -0.04341,-0.0748 -0.04341,-0.15193 0,-0.0772 0.01688,-0.17122 0.05064,-0.28215 0.03617,-0.11334 0.08079,-0.23271 0.133842,-0.35812 0.05547,-0.12781 0.115754,-0.25803 0.180867,-0.39067 0.06752,-0.13263 0.133841,-0.25924 0.198954,-0.37982 0.06511,-0.12299 0.125401,-0.23514 0.180868,-0.33642 0.05787,-0.101281 0.102488,-0.183276 0.133842,-0.245976 l -0.115755,-0.05064 c -0.05547,0.0627 -0.109728,0.124199 -0.162781,0.184485 -0.05305,0.06029 -0.103696,0.120571 -0.151929,0.180861 -0.02412,-0.15193 -0.09285,-0.264059 -0.206189,-0.336407 -0.113343,-0.07476 -0.280947,-0.112138 -0.502811,-0.112138 -0.09887,0 -0.211013,0.01568 -0.336414,0.04703 -0.125402,0.03135 -0.258037,0.08441 -0.397908,0.159163 -0.137459,0.07235 -0.278536,0.168812 -0.42323,0.289392 -0.142282,0.12058 -0.279742,0.26889 -0.412378,0.44493 -0.156754,0.20499 -0.265275,0.3967 -0.325562,0.57516 -0.0627,0.17604 -0.09405,0.3328 -0.09405,0.47026 0,0.11094 0.01809,0.2086 0.05426,0.293 0.03376,0.0844 0.08199,0.15557 0.144694,0.21343 0.06029,0.0579 0.130226,0.10128 0.209807,0.13022 0.08199,0.0313 0.168809,0.047 0.260449,0.047 0.08682,0 0.17725,-0.012 0.271301,-0.0362 0.09646,-0.0217 0.195337,-0.0615 0.296623,-0.11937 0.103697,-0.0579 0.209807,-0.13626 0.318327,-0.23513 0.110932,-0.0989 0.226687,-0.22427 0.347265,-0.3762 -0.0048,0.0193 -0.0085,0.0459 -0.01085,0.0796 v 0.0615 c 0,0.13746 0.03376,0.24959 0.101286,0.33641 0.06752,0.0868 0.173633,0.13022 0.318327,0.13022 0.09887,0 0.195337,-0.0193 0.289388,-0.0579 0.09405,-0.0386 0.183279,-0.0904 0.267684,-0.15555 0.08682,-0.0651 0.16881,-0.13987 0.24598,-0.22428 0.07717,-0.0844 0.14831,-0.17122 0.213423,-0.26045 0.04655,-0.0632 0.08631,-0.12503 0.127124,-0.18706 -0.01591,0.0986 -0.02584,0.18256 -0.02584,0.24133 0,0.11093 0.01447,0.21342 0.04341,0.30747 0.02653,0.0941 0.06752,0.17605 0.12299,0.24598 0.05547,0.0675 0.12299,0.12056 0.202572,0.15916 0.08199,0.0386 0.17725,0.0579 0.28577,0.0579 0.176044,0 0.340031,-0.0434 0.49196,-0.13022 0.151929,-0.0892 0.291801,-0.20016 0.419613,-0.3328 0.08043,-0.0834 0.154599,-0.17239 0.225826,-0.26407 -0.0056,0.0451 -0.0088,0.0898 -0.0088,0.13385 0,0.13746 0.03859,0.24959 0.115755,0.33641 0.07717,0.0868 0.188102,0.13022 0.332796,0.13022 0.15434,0 0.296623,-0.0398 0.426847,-0.11937 0.130225,-0.0796 0.249597,-0.17966 0.358118,-0.30024 0.108521,-0.12299 0.20619,-0.25563 0.293006,-0.39791 0.08923,-0.14228 0.16881,-0.27612 0.238745,-0.40152 0.03377,-0.0507 0.07597,-0.11697 0.126607,-0.19896 0.05064,-0.082 0.104901,-0.16881 0.162781,-0.26045 0.05788,-0.0916 0.118167,-0.18328 0.180867,-0.27492 0.06511,-0.094 0.12902,-0.17725 0.19172,-0.24959 0.0627,-0.07476 0.122987,-0.135053 0.180867,-0.180873 0.06029,-0.04823 0.113344,-0.07235 0.159164,-0.07235 0.04341,0 0.07717,0.01085 0.101285,0.03256 0.02411,0.01929 0.03617,0.06149 0.03617,0.126607 0,0.05788 -0.01326,0.135046 -0.03979,0.231516 -0.02653,0.094 -0.07476,0.21342 -0.144694,0.35811 -0.04823,0.0965 -0.10008,0.19535 -0.155546,0.29663 -0.05547,0.10129 -0.11455,0.20257 -0.17725,0.30385 -0.06029,0.0989 -0.121785,0.19534 -0.184485,0.28939 -0.0627,0.094 -0.124198,0.18208 -0.184485,0.26407 l -0.42323,0.58239 0.318327,0.13023 c 0.02894,-0.0361 0.0615,-0.0796 0.09767,-0.13023 0.03617,-0.0482 0.07475,-0.0989 0.115756,-0.15193 0.04099,-0.0555 0.08199,-0.11092 0.12299,-0.16639 0.041,-0.0554 0.082,-0.10972 0.122989,-0.16279 0.09405,-0.12299 0.190515,-0.2508 0.289389,-0.38343 0.173633,-0.2291 0.334001,-0.43288 0.481107,-0.61134 0.149517,-0.18087 0.286976,-0.33279 0.412378,-0.45578 0.125402,-0.12299 0.238745,-0.21584 0.340031,-0.27854 0.101286,-0.06511 0.190514,-0.09767 0.267684,-0.09767 0.07234,0 0.127811,0.02532 0.166398,0.07597 0.041,0.0506 0.06149,0.11335 0.06149,0.1881 0,0.0651 -0.02171,0.14349 -0.06511,0.23513 -0.041,0.0892 -0.09285,0.18689 -0.155546,0.293 -0.0627,0.10611 -0.13143,0.21825 -0.206189,0.33642 -0.07476,0.11575 -0.143489,0.2315 -0.206189,0.34726 -0.0627,0.11575 -0.115757,0.22909 -0.159164,0.34003 -0.04099,0.10852 -0.0615,0.2098 -0.0615,0.30386 0,0.0579 0.01085,0.11334 0.03256,0.1664 0.02171,0.0506 0.05064,0.0952 0.08682,0.13384 0.03859,0.0385 0.08441,0.0687 0.137459,0.0904 0.05305,0.0217 0.112137,0.0326 0.17725,0.0326 0.113343,0 0.225482,-0.0325 0.336414,-0.0977 0.113343,-0.0651 0.223069,-0.14711 0.329179,-0.24598 0.106108,-0.10129 0.204983,-0.21102 0.296622,-0.32918 0.0926,-0.11871 0.175186,-0.23146 0.249081,-0.33848 -0.0046,0.0472 -0.0067,0.0949 -0.0067,0.14315 0,0.14951 0.02411,0.27491 0.07235,0.3762 0.04582,0.10132 0.106109,0.18331 0.180867,0.24598 0.07476,0.0603 0.157959,0.10369 0.249598,0.13022 0.09164,0.0265 0.183279,0.0398 0.274918,0.0398 0.12299,0 0.250803,-0.0265 0.383439,-0.0796 0.135047,-0.0506 0.265273,-0.11817 0.390674,-0.20257 -0.03376,0.0772 -0.06993,0.16158 -0.10852,0.25322 -0.03858,0.0941 -0.08079,0.19292 -0.126608,0.29662 -0.373792,0.19534 -0.709001,0.38946 -1.005623,0.58239 -0.294212,0.19292 -0.542603,0.38707 -0.745174,0.5824 -0.204984,0.19534 -0.360529,0.39187 -0.466638,0.58962 -0.10852,0.19775 -0.162781,0.39791 -0.162781,0.60048 0,0.10611 0.01809,0.19293 0.05426,0.26045 0.0015,0.003 0.0036,0.005 0.0052,0.008 0.05023,-0.0926 0.105991,-0.18101 0.169499,-0.26355 -6.2e-5,-0.003 -0.001,-0.005 -0.001,-0.008 0,-0.0796 0.03738,-0.19413 0.112138,-0.34365 0.07235,-0.14952 0.189308,-0.31712 0.350883,-0.50281 0.161574,-0.18569 0.368969,-0.38103 0.622184,-0.58601 0.255626,-0.20257 0.563101,-0.3979 0.922424,-0.58601 -0.07958,0.17605 -0.163986,0.3557 -0.253214,0.53898 -0.08682,0.18328 -0.178456,0.36174 -0.274919,0.53537 -0.04576,0.0835 -0.09243,0.15872 -0.139009,0.23513 0.03648,-0.002 0.07264,-0.006 0.109554,-0.006 0.09084,0 0.180494,0.008 0.268717,0.0207 0.04998,-0.0774 0.09982,-0.15318 0.151412,-0.24288 0.212217,-0.36656 0.432876,-0.83079 0.661975,-1.39268 0.277331,-0.16639 0.516077,-0.31832 0.716236,-0.45578 0.202572,-0.13987 0.528133,-0.40515 0.528133,-0.40515 l -0.09043,-0.15192 c 0,0 -0.278536,0.23513 -0.444934,0.35088 -0.166398,0.11576 -0.359324,0.23633 -0.578776,0.36173 0.0844,-0.19051 0.172427,-0.38465 0.264066,-0.58239 0.09405,-0.19775 0.185691,-0.38947 0.274919,-0.57516 0.09164,-0.18569 0.178456,-0.36052 0.260449,-0.52451 0.0844,-0.1664 0.157959,-0.3111 0.220659,-0.43409 0.0627,-0.12299 0.113341,-0.22066 0.151928,-0.293004 0.03859,-0.07477 0.05788,-0.113355 0.05788,-0.115755 l -0.119373,-0.07958 -0.195337,0.256829 c -0.02171,-0.0386 -0.04944,-0.07958 -0.0832,-0.122987 -0.03376,-0.04341 -0.07958,-0.0832 -0.137459,-0.119372 -0.05788,-0.03859 -0.129018,-0.06994 -0.213424,-0.09405 -0.08199,-0.02653 -0.182073,-0.03979 -0.30024,-0.03979 -0.120578,0 -0.25442,0.02291 -0.401526,0.06873 -0.147106,0.04582 -0.295417,0.110931 -0.444934,0.195336 -0.147105,0.08199 -0.290592,0.182073 -0.430464,0.300243 -0.13987,0.11817 -0.264066,0.2496 -0.372587,0.39429 -0.06653,0.0872 -0.122386,0.18069 -0.1726,0.27698 l -0.01189,-0.009 c -0.09405,0.14469 -0.198955,0.29783 -0.31471,0.4594 -0.115755,0.16158 -0.232716,0.3111 -0.350883,0.44855 -0.115755,0.13746 -0.230304,0.25201 -0.343648,0.34365 -0.113344,0.0892 -0.215836,0.13384 -0.307475,0.13384 -0.02894,0 -0.05547,-0.01 -0.07958,-0.0289 -0.02411,-0.0193 -0.03617,-0.0567 -0.03617,-0.11213 0,-0.0723 0.01809,-0.15193 0.05426,-0.23875 0.03617,-0.0892 0.08199,-0.18208 0.13746,-0.27854 0.05547,-0.0965 0.11455,-0.19654 0.17725,-0.30024 0.0627,-0.1037 0.121783,-0.20859 0.17725,-0.3147 0.05547,-0.10852 0.101286,-0.21584 0.137459,-0.32195 0.03617,-0.10852 0.05426,-0.21463 0.05426,-0.31833 0,-0.12781 -0.01929,-0.2315 -0.05788,-0.31109 -0.03618,-0.08199 -0.08079,-0.145895 -0.133842,-0.191715 -0.05306,-0.04582 -0.109729,-0.07717 -0.170016,-0.09405 -0.06029,-0.01688 -0.113343,-0.02532 -0.159163,-0.02532 -0.05305,0 -0.112137,0.0084 -0.17725,0.02532 -0.06511,0.01689 -0.136254,0.04582 -0.213424,0.08682 -0.07717,0.03859 -0.161574,0.09164 -0.253214,0.159165 -0.09164,0.0675 -0.190515,0.15313 -0.296623,0.25683 0.01447,-0.0675 0.0217,-0.13263 0.0217,-0.19533 0,-0.07958 -0.01085,-0.149526 -0.03256,-0.209813 -0.0217,-0.06029 -0.05185,-0.110935 -0.09043,-0.151929 -0.03618,-0.04341 -0.07958,-0.07596 -0.130224,-0.09767 -0.04823,-0.02171 -0.09887,-0.03256 -0.151929,-0.03256 -0.09888,0 -0.192925,0.03256 -0.282153,0.09767 -0.08682,0.0627 -0.177251,0.15193 -0.271302,0.267684 -0.09164,0.115758 -0.188102,0.254418 -0.289388,0.415988 -0.09887,0.15916 -0.209806,0.33521 -0.332796,0.52814 -0.08923,0.13746 -0.178456,0.27371 -0.267684,0.40876 -0.08923,0.13504 -0.180867,0.25562 -0.274919,0.36173 -0.09164,0.10367 -0.184483,0.18808 -0.278535,0.25322 -0.09405,0.0651 -0.190513,0.0977 -0.289388,0.0977 -0.05305,0 -0.09405,-0.012 -0.12299,-0.0362 -0.02894,-0.0265 -0.04341,-0.0748 -0.04341,-0.14469 0,-0.0772 0.01688,-0.17121 0.05064,-0.28215 0.03376,-0.11093 0.07717,-0.22911 0.130225,-0.35451 0.05547,-0.12781 0.116961,-0.25803 0.184485,-0.39067 0.06752,-0.13505 0.13384,-0.26286 0.198954,-0.38344 0.06511,-0.12299 0.125402,-0.23512 0.180868,-0.33641 0.05788,-0.103694 0.102489,-0.186896 0.133842,-0.249596 l -0.115756,-0.05064 c -0.110932,0.130224 -0.232716,0.274926 -0.365352,0.434086 -0.130225,0.15917 -0.252008,0.32556 -0.365352,0.49919 -0.05094,0.0786 -0.09725,0.15809 -0.14056,0.23772 -0.01333,0.0218 -0.01828,0.0306 -0.04031,0.0661 -0.04341,0.0675 -0.09887,0.14711 -0.166398,0.23875 -0.06511,0.0916 -0.141077,0.1893 -0.227893,0.293 -0.08441,0.10369 -0.174838,0.19895 -0.271301,0.28577 -0.09405,0.0868 -0.190514,0.15918 -0.289388,0.21704 -0.09887,0.0555 -0.195337,0.0832 -0.289388,0.0832 -0.106109,0 -0.195337,-0.0338 -0.267684,-0.10128 -0.07235,-0.0699 -0.108521,-0.18327 -0.108521,-0.34003 0,-0.1254 0.0205,-0.27251 0.06149,-0.44132 0.041,-0.17122 0.09767,-0.35451 0.170016,-0.54984 0.07235,-0.19534 0.155546,-0.40032 0.249597,-0.61495 0.09646,-0.214632 0.198954,-0.430467 0.307474,-0.647507 h 1.204578 l 0.07235,-0.188102 h -1.179256 c 0.106108,-0.204983 0.213423,-0.402732 0.321944,-0.593245 0.108521,-0.192925 0.214629,-0.374999 0.318327,-0.54622 z m 1.776119,0.828374 c -0.05305,0 -0.100077,0.01688 -0.141077,0.05064 -0.04099,0.03376 -0.07596,0.07476 -0.104903,0.12299 -0.02894,0.04582 -0.05065,0.09526 -0.06511,0.148311 -0.01447,0.05305 -0.0217,0.09887 -0.0217,0.137459 0,0.04341 0.01085,0.08079 0.03256,0.112138 0.02171,0.02894 0.05306,0.04341 0.09405,0.04341 0.04582,0 0.09164,-0.01326 0.137459,-0.03979 0.04582,-0.02652 0.08682,-0.06028 0.12299,-0.101285 0.03859,-0.041 0.06994,-0.08682 0.09405,-0.13746 0.02411,-0.05305 0.03617,-0.103695 0.03617,-0.151928 0,-0.04582 -0.01809,-0.08802 -0.05426,-0.126608 -0.03618,-0.03859 -0.07958,-0.05788 -0.130225,-0.05788 z m -4.814693,1.056266 c 0.103694,0 0.184482,0.01809 0.242362,0.05426 0.05788,0.03618 0.100082,0.07959 0.126608,0.130226 0.02655,0.0483 0.04223,0.0965 0.04702,0.14469 0.0072,0.0482 0.01085,0.0832 0.01085,0.10491 -0.03617,0.0531 -0.07837,0.11816 -0.126607,0.19533 -0.04824,0.0772 -0.09767,0.15796 -0.148311,0.24237 -0.05064,0.082 -0.09887,0.16278 -0.144694,0.24236 -0.04582,0.0771 -0.0844,0.14106 -0.115756,0.19172 -0.08682,0.11094 -0.176043,0.22428 -0.267683,0.34003 -0.09164,0.11334 -0.188103,0.21703 -0.289389,0.31109 -0.101286,0.0941 -0.209806,0.17124 -0.325561,0.23151 -0.115755,0.0579 -0.239951,0.0868 -0.372587,0.0868 -0.115756,0 -0.204984,-0.0374 -0.267684,-0.11214 -0.0627,-0.0748 -0.09405,-0.18087 -0.09405,-0.31833 0,-0.16158 0.04461,-0.34244 0.133842,-0.5426 0.09164,-0.20258 0.220658,-0.40394 0.387056,-0.6041 0.110932,-0.13264 0.221865,-0.24356 0.332797,-0.33279 0.110932,-0.0892 0.218247,-0.16038 0.321944,-0.21343 0.106109,-0.0555 0.204983,-0.09404 0.296622,-0.115753 0.09405,-0.02411 0.178456,-0.03617 0.253215,-0.03617 z m 10.44329,0.0036 c 0.07235,0 0.135049,0.01085 0.188102,0.03256 0.05306,0.02171 0.09646,0.04944 0.130225,0.0832 0.03376,0.0313 0.06029,0.0663 0.07958,0.1049 0.01931,0.0386 0.03137,0.0759 0.03617,0.11214 -0.09646,0.13505 -0.184484,0.26527 -0.264066,0.39067 -0.07717,0.1254 -0.150724,0.24839 -0.220659,0.36897 -0.06752,0.11816 -0.133841,0.23754 -0.198954,0.35812 -0.0627,0.11817 -0.126606,0.23874 -0.19172,0.36173 -0.159163,0.14711 -0.320738,0.26527 -0.484725,0.3545 -0.161574,0.0892 -0.314709,0.13385 -0.459403,0.13385 -0.13746,0 -0.24598,-0.0398 -0.325562,-0.11938 -0.07958,-0.082 -0.119372,-0.20136 -0.119372,-0.35811 0,-0.16158 0.04461,-0.34003 0.133842,-0.53537 0.08923,-0.19774 0.217041,-0.3955 0.383439,-0.59325 0.113343,-0.13505 0.2291,-0.24718 0.347266,-0.33641 0.120578,-0.0892 0.238744,-0.16037 0.3545,-0.21342 0.115755,-0.053 0.225481,-0.09043 0.329179,-0.112099 0.106108,-0.02171 0.20016,-0.03256 0.282153,-0.03256 z M 60.582866,102.1364 c 0.132636,0 0.271301,0.0145 0.415995,0.0434 0.144694,0.0265 0.296622,0.0603 0.455786,0.10129 -0.139871,0.10128 -0.2918,0.17844 -0.455786,0.23151 -0.161575,0.0555 -0.340031,0.0832 -0.535368,0.0832 -0.161575,0 -0.276124,-0.0205 -0.343648,-0.0615 -0.06511,-0.041 -0.09767,-0.0892 -0.09767,-0.14469 0,-0.07 0.04582,-0.12905 0.13746,-0.17725 0.09405,-0.0507 0.235128,-0.076 0.42323,-0.076 z"
       sodipodi:nodetypes="cccscccccscccsccccccccccsscssccsccscccccccccscccscccscccscccccscccccccscsscccscccccssccscccccccccccccccscsccccccccccssccccscccscccccscssccccscccscccscsccccsccccscsccscccccccccccscscscccccsccssccccscccscccccccscccscscccccscccccccccccsccccsccsscsccccccscsccsccsccssccccscccscccccccscscccccccccccccccscscsccccccccscccscscccscsscccccccccccscscccccsssccccccccscscccccsscccscscscsccs" />
    <text
       xml:space="preserve"
       style="font-style:normal;font-variant:normal;font-weight:500;font-stretch:normal;font-size:2.64583px;font-family:Urbanist;-inkscape-font-specification:'Urbanist Medium';text-align:center;letter-spacing:0.264583px;writing-mode:lr-tb;direction:ltr;text-anchor:middle;fill:#be185d;fill-opacity:1;stroke:none;stroke-width:0.204787;stroke-miterlimit:4.5;paint-order:markers stroke fill"
       x="69.443237"
       y="104.58092"
       id="text3"><tspan
         sodipodi:role="line"
         id="tspan3"
         style="font-style:normal;font-variant:normal;font-weight:300;font-stretch:normal;font-size:2.64583px;font-family:Urbanist;-inkscape-font-specification:'Urbanist Light';text-align:end;letter-spacing:0.264583px;text-anchor:end;fill:#be185d;fill-opacity:1;stroke:none;stroke-width:0.204787"
         x="69.443237"
         y="104.58092"
         dy="1.14">mad<tspan
   style="font-size:2.64583px;letter-spacing:0px;fill:#be185d;fill-opacity:1"
   id="tspan2">e</tspan></tspan><tspan
         sodipodi:role="line"
         style="font-style:normal;font-variant:normal;font-weight:300;font-stretch:normal;font-size:2.64583px;font-family:Urbanist;-inkscape-font-specification:'Urbanist Light';text-align:end;letter-spacing:0.264583px;text-anchor:end;fill:#be185d;fill-opacity:1;stroke:none;stroke-width:0.204787"
         x="69.707817"
         y="107.88821"
         id="tspan4">simple</tspan></text>
    <path
       style="stroke-linecap:round;stroke-linejoin:round;stroke-miterlimit:4.5;paint-order:markers stroke fill"
       d="m 80.425781,96.394531 c -0.488956,0.0062 -0.820636,0.223729 -1.009765,0.513672 -0.149853,0.22973 -0.168453,0.418315 -0.177849,0.66766 -0.127914,-0.259147 -0.277347,-0.440693 -0.515511,-0.593441 -0.295319,-0.189405 -0.65955,-0.262323 -1.015625,-0.123047 -0.368239,0.144034 -0.590541,0.571116 -0.550781,1.044922 0.03976,0.473806 0.402472,0.963535 1.079362,1.324235 l 0.03035,-0.08609 c -0.634427,-0.338073 -0.883888,-0.848706 -0.878133,-1.261388 0.0068,-0.489825 0.263696,-0.659823 0.449434,-0.727234 0.20118,-0.07302 0.572229,-0.0286 0.760452,0.06278 0.276266,0.13412 0.565112,0.389863 0.667272,0.689078 l 0.0793,-0.01324 c -0.02049,-0.262723 0.139211,-0.740422 0.30555,-0.893301 0.166338,-0.152879 0.463942,-0.30243 0.827586,-0.26124 0.482734,-0.0061 1.102661,0.498406 1.095999,1.403726 -0.0098,1.186227 -0.743293,2.520325 -2.05585,3.545865 -0.03788,0.0301 -0.04401,0.0853 -0.01367,0.12305 0.02942,0.0373 0.0832,0.0442 0.121094,0.0156 1.341973,-1.04852 2.19662,-2.405408 2.207031,-3.669919 0.01022,-1.245269 -0.818031,-1.769186 -1.40625,-1.761719 z"
       id="path1"
       sodipodi:nodetypes="cscsssccssscczcccccccc" />
  </g>
</svg>
