<?xml version="1.0" encoding="UTF-8" standalone="no"?>
<!-- Created with Inkscape (http://www.inkscape.org/) -->

<svg
   width="32"
   height="32"
   viewBox="0 0 8.4666666 8.466666"
   version="1.1"
   id="svg1"
   inkscape:version="1.4 (86a8ad7, 2024-10-11)"
   sodipodi:docname="logo.svg"
   xmlns:inkscape="http://www.inkscape.org/namespaces/inkscape"
   xmlns:sodipodi="http://sodipodi.sourceforge.net/DTD/sodipodi-0.dtd"
   xmlns="http://www.w3.org/2000/svg"
   xmlns:svg="http://www.w3.org/2000/svg">
  <sodipodi:namedview
     id="namedview1"
     pagecolor="#505050"
     bordercolor="#eeeeee"
     borderopacity="1"
     inkscape:showpageshadow="0"
     inkscape:pageopacity="0"
     inkscape:pagecheckerboard="0"
     inkscape:deskcolor="#505050"
     inkscape:document-units="mm"
     showguides="true"
     inkscape:zoom="11.313708"
     inkscape:cx="16.661204"
     inkscape:cy="9.4133594"
     inkscape:window-width="1920"
     inkscape:window-height="1009"
     inkscape:window-x="-8"
     inkscape:window-y="-8"
     inkscape:window-maximized="1"
     inkscape:current-layer="g8" />
  <defs
     id="defs1" />
  <g
     inkscape:label="Layer 1"
     inkscape:groupmode="layer"
     id="layer1"
     transform="translate(-68.580827,-110.23431)">
    <g
       id="g8"
       transform="translate(0.14331373,1.1231438)">
      <text
         xml:space="preserve"
         style="font-style:normal;font-variant:normal;font-weight:100;font-stretch:normal;font-size:6.35px;font-family:Urbanist;-inkscape-font-specification:'Urbanist Thin';text-align:center;writing-mode:lr-tb;direction:ltr;text-anchor:middle;fill:#be185d;fill-opacity:1;stroke:none;stroke-width:0.204787;stroke-miterlimit:4.5;stroke-opacity:1;paint-order:markers stroke fill"
         x="75.095581"
         y="116.45469"
         id="text1"><tspan
           sodipodi:role="line"
           id="tspan1"
           style="font-style:normal;font-variant:normal;font-weight:500;font-stretch:normal;font-size:6.35px;font-family:Urbanist;-inkscape-font-specification:'Urbanist Medium';fill:#be185d;fill-opacity:1;stroke:none;stroke-width:0.204787;stroke-opacity:1"
           x="75.095581"
           y="116.45469">N</tspan></text>
      <path
         id="text5"
         style="font-style:normal;font-variant:normal;font-weight:normal;font-stretch:normal;font-size:7.40833px;font-family:Parisienne;-inkscape-font-specification:Parisienne;text-align:end;letter-spacing:0px;writing-mode:lr-tb;direction:ltr;text-anchor:end;fill:#000000;fill-opacity:1;stroke:none;stroke-width:0.166688;stroke-linecap:round;stroke-linejoin:round;stroke-miterlimit:4.5;paint-order:markers stroke fill"
         d="m 74.032174,110.23431 c -0.159163,0.12781 -0.307475,0.26527 -0.444934,0.41238 -0.202572,-0.0916 -0.420819,-0.16158 -0.654741,-0.20981 -0.23151,-0.0506 -0.478696,-0.076 -0.741556,-0.076 -0.361735,0 -0.702972,0.0386 -1.023711,0.11575 -0.318326,0.0748 -0.611332,0.17725 -0.879016,0.30748 -0.265272,0.12781 -0.504017,0.27612 -0.716235,0.44493 -0.212218,0.16881 -0.39188,0.34727 -0.538985,0.53537 -0.144694,0.18569 -0.256832,0.37379 -0.336414,0.56431 -0.07717,0.19051 -0.115755,0.37258 -0.115755,0.54622 0,0.15192 0.02894,0.29059 0.08682,0.41599 0.05788,0.1254 0.135048,0.23392 0.231511,0.32556 0.09887,0.0892 0.213424,0.15917 0.343648,0.20981 0.130225,0.0482 0.267684,0.0724 0.412378,0.0724 0.144694,0 0.286977,-0.0157 0.426847,-0.047 0.139871,-0.0338 0.274919,-0.0772 0.405144,-0.13022 0.130224,-0.0555 0.255626,-0.11696 0.376204,-0.18449 0.12299,-0.0699 0.241157,-0.14228 0.3545,-0.21704 l -0.115755,-0.15193 c -0.0024,0.002 -0.0205,0.0157 -0.05426,0.0398 -0.03135,0.0217 -0.07596,0.0507 -0.133842,0.0868 -0.05788,0.0338 -0.125402,0.0711 -0.202572,0.11214 -0.07717,0.0386 -0.160369,0.0748 -0.249597,0.10852 -0.08923,0.0338 -0.183279,0.0627 -0.282153,0.0868 -0.09646,0.0217 -0.194131,0.0326 -0.293006,0.0326 -0.127812,0 -0.245979,-0.0229 -0.3545,-0.0687 -0.10852,-0.0458 -0.202571,-0.10731 -0.282153,-0.18448 -0.07958,-0.0796 -0.142283,-0.17123 -0.188102,-0.27492 -0.04582,-0.1037 -0.06873,-0.21343 -0.06873,-0.32918 0,-0.17846 0.03738,-0.35691 0.112138,-0.53537 0.07717,-0.18087 0.184485,-0.35329 0.321944,-0.51728 0.139871,-0.1664 0.307475,-0.32074 0.502812,-0.46302 0.195337,-0.14228 0.411172,-0.26648 0.647505,-0.37259 0.236334,-0.10611 0.490754,-0.18931 0.763261,-0.2496 0.272507,-0.0603 0.555867,-0.0904 0.850078,-0.0904 0.241156,0 0.466638,0.0217 0.676444,0.0651 0.212218,0.041 0.408761,0.10008 0.589628,0.17725 -0.212218,0.24598 -0.403937,0.50884 -0.575158,0.78858 -0.16881,0.27975 -0.326768,0.56552 -0.473873,0.85732 -0.144694,0.2918 -0.282154,0.58239 -0.412378,0.87178 -0.127813,0.28939 -0.259244,0.56672 -0.394291,0.83199 -0.132637,0.26286 -0.272508,0.50643 -0.419613,0.7307 -0.144694,0.22187 -0.305063,0.41238 -0.481108,0.57154 -0.180867,-0.0482 -0.359323,-0.0904 -0.535368,-0.1266 -0.173632,-0.0386 -0.348471,-0.0579 -0.524515,-0.0579 -0.127813,0 -0.239951,0.0121 -0.336414,0.0362 -0.09405,0.0241 -0.172427,0.0567 -0.235128,0.0977 -0.06029,0.041 -0.106109,0.0892 -0.137459,0.1447 -0.02894,0.053 -0.04341,0.10972 -0.04341,0.17001 0,0.0506 0.01206,0.0989 0.03617,0.1447 0.02653,0.0482 0.06511,0.0904 0.115756,0.1266 0.05305,0.0362 0.120578,0.0639 0.202571,0.0832 0.08199,0.0217 0.179662,0.0326 0.293006,0.0326 0.27733,0 0.525721,-0.035 0.745174,-0.10491 0.221864,-0.0699 0.425641,-0.1676 0.611332,-0.293 0.241156,0.0651 0.493165,0.1242 0.756026,0.17725 0.262861,0.0555 0.540191,0.0832 0.831991,0.0832 0.300626,0 0.572635,-0.0328 0.818554,-0.0956 v -0.29508 c -0.30487,0.12261 -0.652139,0.18449 -1.04283,0.18449 -0.204983,0 -0.403938,-0.0205 -0.596863,-0.0615 -0.192925,-0.0386 -0.385851,-0.0844 -0.578776,-0.13745 0.195337,-0.16399 0.371381,-0.35692 0.528133,-0.57878 0.156752,-0.22428 0.301446,-0.46543 0.434082,-0.72347 0.135048,-0.26045 0.264067,-0.53296 0.387057,-0.81752 0.12299,-0.28457 0.248391,-0.57154 0.376204,-0.86093 0.127813,-0.28939 0.264067,-0.57516 0.408761,-0.85731 0.144694,-0.28216 0.305063,-0.54984 0.481107,-0.80305 0.183279,0.10128 0.34606,0.22307 0.488343,0.36535 0.142282,0.14228 0.261655,0.30024 0.358117,0.47387 0.09887,0.17363 0.173633,0.36174 0.224276,0.56431 0.05064,0.20257 0.07596,0.41599 0.07596,0.64027 0,0.0381 -9.97e-4,0.076 -0.0021,0.11369 l 0.366386,0.5736 c 0.01939,-0.14645 0.02997,-0.29383 0.02997,-0.44131 0,-0.25563 -0.03256,-0.50281 -0.09767,-0.74156 -0.0627,-0.24116 -0.155546,-0.46664 -0.278536,-0.67644 -0.120578,-0.20981 -0.270095,-0.40153 -0.448551,-0.57516 -0.176045,-0.17605 -0.377411,-0.32677 -0.604098,-0.45217 0.103698,-0.13987 0.215835,-0.27371 0.336414,-0.40153 z m 0.576709,3.99821 c -0.104737,0.26335 -0.244648,0.49841 -0.421163,0.70435 -0.02968,0.0343 -0.06032,0.0679 -0.09198,0.10025 v 0.48886 c 0.192991,-0.12613 0.360419,-0.27156 0.500745,-0.43719 0.111595,-0.13354 0.207807,-0.27441 0.288871,-0.42323 z m -4.968172,1.21439 c 0.132636,0 0.271301,0.0145 0.415995,0.0434 0.144694,0.0265 0.296623,0.0603 0.455786,0.10129 -0.139871,0.10128 -0.2918,0.17845 -0.455786,0.23151 -0.161575,0.0555 -0.340031,0.0832 -0.535368,0.0832 -0.161575,0 -0.276124,-0.0205 -0.343648,-0.0615 -0.06511,-0.041 -0.09767,-0.0892 -0.09767,-0.14469 0,-0.0699 0.04582,-0.12902 0.13746,-0.17725 0.09405,-0.0507 0.235128,-0.076 0.42323,-0.076 z" />
    </g>
  </g>
</svg>
