<?xml version="1.0" encoding="UTF-8" standalone="no"?>
<!-- Created with Inkscape (http://www.inkscape.org/) -->

<svg
   width="83.624466"
   height="43.940266"
   viewBox="0 0 22.12564 11.625862"
   version="1.1"
   id="svg1"
   inkscape:version="1.4 (86a8ad7, 2024-10-11)"
   sodipodi:docname="logotext.svg"
   xmlns:inkscape="http://www.inkscape.org/namespaces/inkscape"
   xmlns:sodipodi="http://sodipodi.sourceforge.net/DTD/sodipodi-0.dtd"
   xmlns="http://www.w3.org/2000/svg"
   xmlns:svg="http://www.w3.org/2000/svg">
  <sodipodi:namedview
     id="namedview1"
     pagecolor="#505050"
     bordercolor="#eeeeee"
     borderopacity="1"
     inkscape:showpageshadow="0"
     inkscape:pageopacity="0"
     inkscape:pagecheckerboard="0"
     inkscape:deskcolor="#505050"
     inkscape:document-units="mm"
     showguides="true"
     inkscape:zoom="5.7513468"
     inkscape:cx="20.951614"
     inkscape:cy="8.6066798"
     inkscape:window-width="1920"
     inkscape:window-height="1009"
     inkscape:window-x="-8"
     inkscape:window-y="-8"
     inkscape:window-maximized="1"
     inkscape:current-layer="layer1" />
  <defs
     id="defs1" />
  <g
     inkscape:label="Layer 1"
     inkscape:groupmode="layer"
     id="layer1"
     transform="translate(-59.522982,-96.9238)">
    <text
       xml:space="preserve"
       style="font-style:normal;font-variant:normal;font-weight:100;font-stretch:normal;font-size:6.35px;font-family:Urbanist;-inkscape-font-specification:'Urbanist Thin';text-align:center;writing-mode:lr-tb;direction:ltr;text-anchor:middle;fill:#000000;fill-opacity:1;stroke:none;stroke-width:0.204787;stroke-miterlimit:4.5;paint-order:markers stroke fill"
       x="76.027634"
       y="107.84999"
       id="text1"><tspan
         sodipodi:role="line"
         id="tspan1"
         style="font-style:normal;font-variant:normal;font-weight:500;font-stretch:normal;font-size:6.35px;font-family:Urbanist;-inkscape-font-specification:'Urbanist Medium';fill:#000000;fill-opacity:1;stroke:none;stroke-width:0.204787"
         x="76.027634"
         y="107.84999">Nick</tspan></text>
    <path
       id="path8"
       style="-inkscape-font-specification:Parisienne;fill:#000000;fill-opacity:1;stroke:none;stroke-miterlimit:4.5;paint-order:markers stroke fill"
       d="M 64.974329 96.9238 C 64.815165 97.051613 64.666854 97.189073 64.529395 97.336178 C 64.326823 97.244538 64.108576 97.174605 63.874654 97.126372 C 63.643144 97.075732 63.395959 97.050407 63.133098 97.050407 C 62.771363 97.050407 62.430125 97.088997 62.109387 97.166162 C 61.791061 97.240922 61.498055 97.343413 61.230371 97.473637 C 60.965099 97.60145 60.726354 97.749762 60.514136 97.918571 C 60.301918 98.087381 60.122257 98.265837 59.975151 98.453939 C 59.830457 98.63963 59.718318 98.827733 59.638737 99.018246 C 59.561567 99.20876 59.522982 99.390833 59.522982 99.564466 C 59.522982 99.716394 59.551918 99.85506 59.609798 99.980461 C 59.667678 100.10586 59.744847 100.21438 59.841309 100.30602 C 59.940179 100.39522 60.054732 100.46517 60.184957 100.51583 C 60.315181 100.56413 60.452641 100.58818 60.597335 100.58818 C 60.742029 100.58818 60.884311 100.57245 61.024182 100.54115 C 61.164053 100.50745 61.299102 100.46395 61.429326 100.41093 C 61.55955 100.35543 61.684951 100.29396 61.80553 100.22644 C 61.92852 100.15654 62.046687 100.08416 62.16003 100.0094 L 62.044275 99.857471 C 62.041875 99.859871 62.023775 99.873152 61.990015 99.897262 C 61.958665 99.918972 61.914055 99.947898 61.856173 99.984078 C 61.798293 100.01785 61.730771 100.05522 61.653601 100.09622 C 61.576431 100.13472 61.493232 100.17092 61.404004 100.20474 C 61.314774 100.23844 61.220725 100.26745 61.121851 100.29155 C 61.025391 100.31325 60.927719 100.32411 60.828845 100.32411 C 60.701032 100.32411 60.582866 100.30118 60.474345 100.25538 C 60.365825 100.20958 60.271774 100.14806 60.192192 100.07089 C 60.112612 99.991315 60.04991 99.899673 60.00409 99.795976 C 59.95827 99.692279 59.93536 99.582552 59.93536 99.466797 C 59.93536 99.288341 59.97274 99.109885 60.047498 98.931429 C 60.124668 98.750562 60.231982 98.578135 60.369442 98.414148 C 60.509313 98.24775 60.676918 98.093409 60.872254 97.951127 C 61.067591 97.808844 61.283426 97.684649 61.519759 97.57854 C 61.756092 97.472429 62.010513 97.38923 62.28302 97.328943 C 62.555527 97.268653 62.838887 97.238509 63.133098 97.238509 C 63.374255 97.238509 63.599736 97.260222 63.809542 97.303622 C 64.02176 97.344622 64.218303 97.403702 64.39917 97.480872 C 64.186952 97.726852 63.995233 97.989713 63.824011 98.269454 C 63.655202 98.549196 63.497245 98.834967 63.350139 99.126766 C 63.205445 99.418566 63.067986 99.70916 62.937761 99.998548 C 62.809948 100.28794 62.678517 100.56527 62.543469 100.83054 C 62.410833 101.0934 62.270963 101.33696 62.123857 101.56124 C 61.979163 101.7831 61.818794 101.97362 61.642749 102.13278 C 61.461882 102.08458 61.283426 102.04238 61.107381 102.00618 C 60.933749 101.96758 60.75891 101.9483 60.582866 101.9483 C 60.455053 101.9483 60.342914 101.96027 60.246452 101.98447 C 60.152402 102.00857 60.074024 102.04114 60.011324 102.08214 C 59.951034 102.12314 59.905211 102.17134 59.873865 102.22684 C 59.844925 102.27994 59.830457 102.33658 59.830457 102.39685 C 59.830457 102.44755 59.84252 102.49575 59.86663 102.54154 C 59.89316 102.58974 59.93174 102.63194 59.982385 102.66815 C 60.035445 102.70435 60.102964 102.73205 60.184957 102.75135 C 60.266947 102.77305 60.364618 102.78391 60.477962 102.78391 C 60.755292 102.78391 61.003685 102.74891 61.223137 102.679 C 61.445001 102.6091 61.648778 102.5114 61.834469 102.386 C 62.075625 102.4511 62.327634 102.51019 62.590495 102.56325 C 62.853355 102.61875 63.130686 102.64645 63.422486 102.64645 C 63.750459 102.64645 64.045875 102.60905 64.308736 102.53431 C 64.571597 102.46191 64.805519 102.36188 65.010502 102.23407 C 65.215485 102.10384 65.391529 101.95191 65.538635 101.77828 C 65.685741 101.60224 65.806321 101.41293 65.900371 101.21036 C 65.996841 101.00538 66.06677 100.79075 66.110177 100.56647 C 66.155997 100.34219 66.178906 100.11672 66.178906 99.890027 C 66.178906 99.634401 66.146348 99.387215 66.081238 99.14847 C 66.018538 98.907314 65.925692 98.681832 65.802702 98.472026 C 65.682126 98.26199 65.532607 98.0705 65.354151 97.896867 C 65.178107 97.720823 64.97674 97.5701 64.750053 97.444698 C 64.85375 97.304828 64.965889 97.170986 65.086467 97.043173 L 64.974329 96.9238 z M 64.637915 97.600244 C 64.821194 97.701529 64.983976 97.823314 65.126258 97.965597 C 65.26854 98.10788 65.387912 98.265837 65.484375 98.43947 C 65.583255 98.613102 65.658011 98.801205 65.708651 99.003776 C 65.759291 99.206348 65.784615 99.419771 65.784615 99.644047 C 65.784615 100.03231 65.729145 100.39646 65.618217 100.73649 C 65.509697 101.07652 65.346916 101.37315 65.129875 101.62636 C 64.912834 101.87717 64.642738 102.07612 64.319588 102.22322 C 63.996438 102.36792 63.622645 102.44026 63.19821 102.44026 C 62.993226 102.44026 62.794272 102.41976 62.601347 102.37876 C 62.408422 102.34016 62.215496 102.29436 62.022571 102.2413 C 62.217907 102.07731 62.393952 101.88439 62.550704 101.66253 C 62.707455 101.43825 62.85215 101.1971 62.984786 100.93906 C 63.119834 100.67861 63.248853 100.4061 63.371843 100.12154 C 63.494833 99.836971 63.620234 99.549996 63.748047 99.260608 C 63.87586 98.97122 64.012114 98.68545 64.156808 98.403296 C 64.301502 98.121143 64.46187 97.853458 64.637915 97.600244 z M 71.453003 98.023474 C 71.358953 98.110294 71.262489 98.2164 71.163615 98.341801 C 71.067155 98.464791 70.976718 98.587781 70.892314 98.710771 C 70.810324 98.833761 70.737973 98.945899 70.675273 99.047185 C 70.614983 99.148474 70.57278 99.219615 70.548666 99.260608 L 69.915629 99.260608 L 69.843282 99.44871 L 70.443762 99.44871 C 70.30148 99.709159 70.183313 99.95273 70.089262 100.17942 C 69.997622 100.40611 69.92407 100.61109 69.868604 100.79436 C 69.855694 100.83646 69.846611 100.87266 69.835531 100.91219 L 69.814343 100.89565 C 69.780583 100.94865 69.739583 101.01382 69.691354 101.09099 C 69.643124 101.16579 69.588859 101.24532 69.528573 101.32973 C 69.470693 101.41173 69.407995 101.49371 69.340471 101.57571 C 69.272951 101.65771 69.203011 101.73123 69.130664 101.79637 C 69.060724 101.86147 68.988382 101.91453 68.913623 101.95553 C 68.841273 101.99653 68.770136 102.01703 68.7002 102.01703 C 68.65197 102.01703 68.61218 102.00627 68.580827 101.98447 C 68.551887 101.96037 68.537419 101.90967 68.537419 101.83254 C 68.537419 101.75534 68.554302 101.66132 68.588062 101.55039 C 68.624232 101.43705 68.668852 101.31768 68.721904 101.19227 C 68.777374 101.06446 68.837658 100.93424 68.902771 100.8016 C 68.970291 100.66897 69.036612 100.54236 69.101725 100.42178 C 69.166835 100.29879 69.227126 100.18664 69.282593 100.08536 C 69.340463 99.984079 69.385081 99.902084 69.416435 99.839384 L 69.30068 99.788741 C 69.24521 99.851441 69.190952 99.91294 69.137899 99.973226 C 69.084849 100.03352 69.034203 100.0938 68.98597 100.15409 C 68.96185 100.00216 68.89312 99.890028 68.779781 99.81768 C 68.666438 99.74292 68.498834 99.705542 68.27697 99.705542 C 68.1781 99.705542 68.065957 99.721218 67.940556 99.752568 C 67.815154 99.783918 67.682519 99.836978 67.542648 99.911731 C 67.405189 99.984081 67.264112 100.08054 67.119418 100.20112 C 66.977136 100.3217 66.839676 100.47001 66.70704 100.64605 C 66.550286 100.85104 66.441765 101.04275 66.381478 101.22121 C 66.318778 101.39725 66.287427 101.55401 66.287427 101.69147 C 66.287427 101.80241 66.305517 101.90007 66.341687 101.98447 C 66.375447 102.06887 66.423677 102.14004 66.486381 102.1979 C 66.546671 102.2558 66.616607 102.29918 66.696188 102.32812 C 66.778178 102.35942 66.864997 102.37515 66.956637 102.37515 C 67.043457 102.37515 67.133887 102.36317 67.227938 102.33897 C 67.324398 102.31727 67.423275 102.27747 67.524561 102.2196 C 67.628258 102.1617 67.734368 102.08334 67.842888 101.98447 C 67.95382 101.88557 68.069575 101.7602 68.190153 101.60827 C 68.185353 101.62757 68.181651 101.65415 68.179301 101.68785 L 68.179301 101.74935 C 68.179301 101.88681 68.213061 101.99894 68.280587 102.08576 C 68.348107 102.17256 68.45422 102.21598 68.598914 102.21598 C 68.697784 102.21598 68.794251 102.19671 68.888302 102.15811 C 68.982352 102.11951 69.071581 102.06771 69.155986 102.00256 C 69.242806 101.93746 69.324796 101.86269 69.401966 101.77828 C 69.479136 101.69388 69.550276 101.60706 69.615389 101.51783 C 69.661939 101.45463 69.701699 101.3928 69.742513 101.33077 C 69.726603 101.42937 69.716675 101.51333 69.716675 101.5721 C 69.716675 101.68303 69.731143 101.78552 69.760083 101.87957 C 69.786613 101.97367 69.827603 102.05562 69.883073 102.12555 C 69.938543 102.19305 70.006063 102.24611 70.085645 102.28471 C 70.167635 102.32331 70.262895 102.34259 70.371415 102.34259 C 70.547459 102.34259 70.711446 102.29919 70.863375 102.21237 C 71.015304 102.12317 71.155176 102.01221 71.282988 101.87957 C 71.363418 101.79617 71.437587 101.70718 71.508814 101.6155 C 71.503214 101.6606 71.500029 101.70531 71.500029 101.74935 C 71.500029 101.88681 71.538619 101.99894 71.615784 102.08576 C 71.692954 102.17256 71.803886 102.21598 71.94858 102.21598 C 72.10292 102.21598 72.245203 102.17618 72.375427 102.09661 C 72.505652 102.01701 72.625024 101.91695 72.733545 101.79637 C 72.842066 101.67338 72.939735 101.54074 73.026551 101.39846 C 73.115781 101.25618 73.195361 101.12234 73.265296 100.99694 C 73.299066 100.94624 73.341266 100.87997 73.391903 100.79798 C 73.442543 100.71598 73.496804 100.62917 73.554684 100.53753 C 73.612564 100.44593 73.672851 100.35425 73.735551 100.26261 C 73.800661 100.16861 73.864571 100.08536 73.927271 100.01302 C 73.989971 99.938257 74.050258 99.87797 74.108138 99.83215 C 74.168428 99.78392 74.221482 99.759803 74.267302 99.759803 C 74.310712 99.759803 74.344472 99.770649 74.368587 99.792359 C 74.392697 99.811649 74.404761 99.853848 74.404761 99.918966 C 74.404761 99.976846 74.3915 100.05401 74.36497 100.15048 C 74.33844 100.24448 74.29021 100.3639 74.220276 100.50859 C 74.172046 100.60509 74.120196 100.70394 74.06473 100.80522 C 74.00926 100.90651 73.95018 101.00779 73.88748 101.10907 C 73.82719 101.20797 73.765695 101.30441 73.702995 101.39846 C 73.640295 101.49246 73.578797 101.58054 73.51851 101.66253 L 73.09528 102.24492 L 73.413607 102.37515 C 73.442547 102.33905 73.475105 102.29555 73.511275 102.24492 C 73.547445 102.19672 73.586025 102.14602 73.627031 102.09299 C 73.668021 102.03749 73.709021 101.98207 73.750021 101.9266 C 73.791021 101.8712 73.832021 101.81688 73.87301 101.76381 C 73.96706 101.64082 74.063525 101.51301 74.162399 101.38038 C 74.336032 101.15128 74.4964 100.9475 74.643506 100.76904 C 74.793023 100.58817 74.930482 100.43625 75.055884 100.31326 C 75.181286 100.19027 75.294629 100.09742 75.395915 100.03472 C 75.497201 99.969611 75.586429 99.937053 75.663599 99.937053 C 75.735939 99.937053 75.79141 99.962377 75.829997 100.01302 C 75.870997 100.06362 75.891492 100.12637 75.891492 100.20112 C 75.891492 100.26622 75.86978 100.34461 75.82638 100.43625 C 75.78538 100.52545 75.73353 100.62314 75.670834 100.72925 C 75.608134 100.83536 75.539404 100.9475 75.464645 101.06567 C 75.389885 101.18142 75.321156 101.29717 75.258456 101.41293 C 75.195756 101.52868 75.142699 101.64202 75.099292 101.75296 C 75.058302 101.86148 75.037797 101.96276 75.037797 102.05682 C 75.037797 102.11472 75.048643 102.17016 75.070353 102.22322 C 75.092063 102.27382 75.12099 102.31842 75.15717 102.35706 C 75.19576 102.39556 75.24158 102.42579 75.294629 102.44749 C 75.347679 102.46919 75.406766 102.48005 75.471879 102.48005 C 75.585222 102.48005 75.697361 102.44758 75.808293 102.38238 C 75.921636 102.31728 76.031362 102.23527 76.137472 102.1364 C 76.24358 102.03511 76.342455 101.92538 76.434094 101.80722 C 76.526694 101.68851 76.60928 101.57576 76.683175 101.46874 C 76.678575 101.51594 76.676457 101.56364 76.676457 101.61189 C 76.676457 101.7614 76.700564 101.8868 76.748804 101.98809 C 76.794624 102.08941 76.854913 102.1714 76.929671 102.23407 C 77.004431 102.29437 77.08763 102.33776 77.179269 102.36429 C 77.270909 102.39079 77.362548 102.40409 77.454187 102.40409 C 77.577177 102.40409 77.70499 102.3776 77.837626 102.3245 C 77.972673 102.2739 78.102899 102.20633 78.2283 102.12193 C 78.19454 102.19913 78.15837 102.28351 78.11978 102.37515 C 78.0812 102.46925 78.03899 102.56807 77.993172 102.67177 C 77.61938 102.86711 77.284171 103.06123 76.987549 103.25416 C 76.693337 103.44708 76.444946 103.64123 76.242375 103.83656 C 76.037391 104.0319 75.881846 104.22843 75.775737 104.42618 C 75.667217 104.62393 75.612956 104.82409 75.612956 105.02666 C 75.612956 105.13277 75.631046 105.21959 75.667216 105.28711 C 75.668693 105.29007 75.670847 105.292 75.672384 105.29487 C 75.72261 105.20227 75.778375 105.11386 75.841883 105.03132 C 75.841821 105.02829 75.840849 105.02612 75.840849 105.02305 C 75.840849 104.94345 75.878229 104.82892 75.952987 104.6794 C 76.025337 104.52988 76.142295 104.36228 76.30387 104.17659 C 76.465444 103.9909 76.672839 103.79556 76.926054 103.59058 C 77.18168 103.38801 77.489155 103.19268 77.848478 103.00457 C 77.768898 103.18062 77.684492 103.36027 77.595264 103.54355 C 77.508444 103.72683 77.416808 103.90529 77.320345 104.07892 C 77.274584 104.16244 77.227915 104.23764 77.181336 104.31405 C 77.217818 104.31189 77.253981 104.30836 77.29089 104.30836 C 77.381727 104.30836 77.471384 104.31597 77.559607 104.32903 C 77.609584 104.25158 77.659432 104.17585 77.711019 104.08615 C 77.923236 103.71959 78.143895 103.25536 78.372994 102.69347 C 78.650325 102.52708 78.889071 102.37515 79.08923 102.23769 C 79.291802 102.09782 79.467847 101.96277 79.617363 101.83254 C 79.769292 101.69991 79.900722 101.56727 80.011654 101.43464 C 80.124998 101.29959 80.2299 101.15369 80.326363 100.99694 L 80.192521 100.89565 C 80.093651 101.04517 79.991156 101.18384 79.885047 101.31165 C 79.778939 101.43946 79.659565 101.56245 79.526929 101.68062 C 79.396704 101.79879 79.248393 101.91575 79.081995 102.0315 C 78.915597 102.14726 78.722671 102.26783 78.503219 102.39323 C 78.587619 102.20272 78.675646 102.00858 78.767285 101.81084 C 78.861335 101.61309 78.952976 101.42137 79.042204 101.23568 C 79.133844 101.04999 79.22066 100.87516 79.302653 100.71117 C 79.387053 100.54477 79.460612 100.40007 79.523312 100.27708 C 79.586012 100.15409 79.636653 100.05642 79.67524 99.984078 C 79.71383 99.909308 79.733118 99.870723 79.733118 99.868323 L 79.613745 99.788741 L 79.418408 100.04557 C 79.396698 100.00697 79.368969 99.96599 79.335209 99.922583 C 79.301449 99.879173 79.255629 99.839384 79.19775 99.803211 C 79.13987 99.764621 79.068732 99.73327 78.984326 99.70916 C 78.902336 99.68263 78.802253 99.669369 78.684086 99.669369 C 78.563508 99.669369 78.429666 99.692279 78.28256 99.738099 C 78.135454 99.783919 77.987143 99.84903 77.837626 99.933435 C 77.690521 100.01543 77.547034 100.11551 77.407162 100.23368 C 77.267292 100.35185 77.143096 100.48328 77.034575 100.62797 C 76.968045 100.71517 76.912189 100.80866 76.861975 100.90495 L 76.85009 100.89617 C 76.75604 101.04086 76.651135 101.194 76.53538 101.35557 C 76.419625 101.51715 76.302664 101.66667 76.184497 101.80412 C 76.068742 101.94158 75.954193 102.05613 75.840849 102.14777 C 75.727505 102.23697 75.625013 102.28161 75.533374 102.28161 C 75.504434 102.28161 75.477903 102.27157 75.453793 102.25267 C 75.429683 102.23337 75.417619 102.19597 75.417619 102.14054 C 75.417619 102.06824 75.435709 101.98861 75.471879 101.90179 C 75.508049 101.81259 75.553869 101.71971 75.609339 101.62325 C 75.664809 101.52675 75.723889 101.42671 75.786589 101.32301 C 75.849289 101.21931 75.908372 101.11442 75.963839 101.00831 C 76.019309 100.89979 76.065125 100.79247 76.101298 100.68636 C 76.137468 100.57784 76.155558 100.47173 76.155558 100.36803 C 76.155558 100.24022 76.136271 100.13653 76.097681 100.05694 C 76.061501 99.974952 76.016891 99.911043 75.963839 99.865223 C 75.910779 99.819403 75.85411 99.788051 75.793823 99.771171 C 75.733533 99.754291 75.68048 99.74585 75.63466 99.74585 C 75.58161 99.74585 75.522523 99.754251 75.45741 99.771171 C 75.3923 99.788061 75.321156 99.816988 75.243986 99.857988 C 75.166816 99.896578 75.082412 99.949625 74.990772 100.01715 C 74.899132 100.08465 74.800257 100.17028 74.694149 100.27398 C 74.708619 100.20648 74.715853 100.14135 74.715853 100.07865 C 74.715853 99.999066 74.705007 99.929127 74.683297 99.86884 C 74.661597 99.80855 74.631443 99.757905 74.592863 99.716911 C 74.556683 99.673501 74.513283 99.640953 74.462639 99.619243 C 74.414409 99.597533 74.363769 99.586687 74.31071 99.586687 C 74.21183 99.586687 74.117785 99.619245 74.028557 99.684355 C 73.941737 99.747055 73.851306 99.836285 73.757255 99.952039 C 73.665615 100.0678 73.569153 100.20646 73.467867 100.36803 C 73.368997 100.52719 73.258061 100.70324 73.135071 100.89617 C 73.045841 101.03363 72.956615 101.16988 72.867387 101.30493 C 72.778157 101.43997 72.68652 101.56055 72.592468 101.66666 C 72.500828 101.77033 72.407985 101.85474 72.313933 101.91988 C 72.219883 101.98498 72.12342 102.01755 72.024545 102.01755 C 71.971495 102.01755 71.930495 102.00557 71.901555 101.98137 C 71.872615 101.95487 71.858146 101.90657 71.858146 101.83668 C 71.858146 101.75948 71.875029 101.66547 71.908789 101.55453 C 71.942549 101.4436 71.985959 101.32542 72.039014 101.20002 C 72.094484 101.07221 72.155975 100.94199 72.223499 100.80935 C 72.291019 100.6743 72.357339 100.54649 72.422453 100.42591 C 72.487563 100.30292 72.547855 100.19079 72.603321 100.0895 C 72.661201 99.985803 72.70581 99.902601 72.737163 99.839901 L 72.621407 99.789258 C 72.510475 99.919482 72.388691 100.06418 72.256055 100.22334 C 72.12583 100.38251 72.004047 100.5489 71.890703 100.72253 C 71.839763 100.80113 71.793453 100.88062 71.750143 100.96025 C 71.736813 100.98205 71.731865 100.99089 71.709835 101.02639 C 71.666425 101.09389 71.610965 101.1735 71.543437 101.26514 C 71.478327 101.35674 71.40236 101.45444 71.315544 101.55814 C 71.231134 101.66183 71.140706 101.75709 71.044243 101.84391 C 70.950193 101.93071 70.853729 102.00309 70.754855 102.06095 C 70.655985 102.11645 70.559518 102.14415 70.465467 102.14415 C 70.359358 102.14415 70.27013 102.11035 70.197783 102.04287 C 70.125433 101.97297 70.089262 101.8596 70.089262 101.70284 C 70.089262 101.57744 70.109767 101.43033 70.150757 101.26152 C 70.191757 101.0903 70.248427 100.90701 70.320773 100.71168 C 70.393123 100.51634 70.476319 100.31136 70.57037 100.09673 C 70.66683 99.882102 70.769324 99.666267 70.877844 99.449227 L 72.082422 99.449227 L 72.154769 99.261125 L 70.975513 99.261125 C 71.081621 99.056142 71.188936 98.858393 71.297457 98.66788 C 71.405978 98.474955 71.512086 98.292881 71.615784 98.12166 L 71.453003 98.023474 z M 73.229122 98.851848 C 73.176072 98.851848 73.129045 98.868731 73.088045 98.902491 C 73.047055 98.936251 73.012085 98.977251 72.983142 99.025481 C 72.954202 99.071301 72.93249 99.120741 72.91803 99.173792 C 72.90356 99.226842 72.896326 99.272661 72.896326 99.311251 C 72.896326 99.354661 72.907172 99.392041 72.928882 99.423389 C 72.950592 99.452329 72.981943 99.466797 73.022933 99.466797 C 73.068753 99.466797 73.114573 99.453536 73.160392 99.427006 C 73.206212 99.400486 73.247212 99.366727 73.283382 99.325721 C 73.321972 99.284721 73.353323 99.2389 73.377433 99.188261 C 73.401543 99.135211 73.413607 99.084566 73.413607 99.036333 C 73.413607 98.990513 73.395517 98.948312 73.359347 98.909725 C 73.323167 98.871135 73.279767 98.851848 73.229122 98.851848 z M 68.414429 99.908114 C 68.518123 99.908114 68.598911 99.926204 68.656791 99.962374 C 68.714671 99.998554 68.756873 100.04196 68.783399 100.0926 C 68.809949 100.1409 68.825634 100.1891 68.830424 100.23729 C 68.837624 100.28549 68.841276 100.32049 68.841276 100.3422 C 68.805106 100.3953 68.762906 100.46036 68.714669 100.53753 C 68.666429 100.61473 68.616999 100.69549 68.566358 100.7799 C 68.515718 100.8619 68.467488 100.94268 68.421664 101.02226 C 68.375844 101.09936 68.337264 101.16332 68.305908 101.21398 C 68.219088 101.32492 68.129865 101.43826 68.038225 101.55401 C 67.946585 101.66735 67.850122 101.77104 67.748836 101.8651 C 67.64755 101.9592 67.53903 102.03634 67.423275 102.09661 C 67.30752 102.15451 67.183324 102.18343 67.050688 102.18343 C 66.934932 102.18343 66.845704 102.14603 66.783004 102.07129 C 66.720304 101.99649 66.688953 101.89042 66.688953 101.75296 C 66.688953 101.59138 66.733563 101.41052 66.822795 101.21036 C 66.914435 101.00778 67.043453 100.80642 67.209851 100.60626 C 67.320783 100.47362 67.431716 100.3627 67.542648 100.27347 C 67.65358 100.18427 67.760895 100.11309 67.864592 100.06004 C 67.970701 100.00454 68.069575 99.966 68.161214 99.944287 C 68.255264 99.920177 68.33967 99.908114 68.414429 99.908114 z M 78.857719 99.911731 C 78.930069 99.911731 78.992768 99.922577 79.045821 99.944287 C 79.098881 99.965997 79.142281 99.993727 79.176046 100.02749 C 79.209806 100.05879 79.236338 100.09379 79.255628 100.13239 C 79.274938 100.17099 79.287001 100.20829 79.291801 100.24453 C 79.195341 100.37958 79.107317 100.5098 79.027735 100.6352 C 78.950565 100.7606 78.877011 100.88359 78.807076 101.00417 C 78.739556 101.12233 78.673235 101.24171 78.608122 101.36229 C 78.545422 101.48046 78.481516 101.60103 78.416402 101.72402 C 78.257239 101.87113 78.095664 101.98929 77.931677 102.07852 C 77.770103 102.16772 77.616968 102.21237 77.472274 102.21237 C 77.334814 102.21237 77.226294 102.17257 77.146712 102.09299 C 77.067132 102.01099 77.02734 101.89163 77.02734 101.73488 C 77.02734 101.5733 77.07195 101.39485 77.161182 101.19951 C 77.250412 101.00177 77.378223 100.80401 77.544621 100.60626 C 77.657964 100.47121 77.773721 100.35908 77.891887 100.26985 C 78.012465 100.18065 78.130631 100.10948 78.246387 100.05643 C 78.362142 100.00343 78.471868 99.965996 78.575566 99.944287 C 78.681674 99.922577 78.775726 99.911731 78.857719 99.911731 z M 60.582866 102.1364 C 60.715502 102.1364 60.854167 102.15091 60.998861 102.17981 C 61.143555 102.20631 61.295483 102.24011 61.454647 102.2811 C 61.314776 102.38238 61.162847 102.45954 60.998861 102.51261 C 60.837286 102.56811 60.65883 102.59581 60.463493 102.59581 C 60.301918 102.59581 60.187369 102.57531 60.119845 102.53431 C 60.054735 102.49331 60.022176 102.44511 60.022176 102.38962 C 60.022176 102.31962 60.067996 102.26057 60.159636 102.21237 C 60.253686 102.16167 60.394764 102.1364 60.582866 102.1364 z " />
    <text
       xml:space="preserve"
       style="font-style:normal;font-variant:normal;font-weight:500;font-stretch:normal;font-size:2.64583px;font-family:Urbanist;-inkscape-font-specification:'Urbanist Medium';text-align:center;letter-spacing:0.264583px;writing-mode:lr-tb;direction:ltr;text-anchor:middle;fill:#404040;fill-opacity:1;stroke:none;stroke-width:0.204787;stroke-miterlimit:4.5;paint-order:markers stroke fill"
       x="69.443237"
       y="104.58092"
       id="text3"><tspan
         sodipodi:role="line"
         id="tspan3"
         style="font-style:normal;font-variant:normal;font-weight:300;font-stretch:normal;font-size:2.64583px;font-family:Urbanist;-inkscape-font-specification:'Urbanist Light';text-align:end;letter-spacing:0.264583px;text-anchor:end;fill:#404040;fill-opacity:1;stroke:none;stroke-width:0.204787"
         x="69.443237"
         y="104.58092"
         dy="1.14">mad<tspan
   style="font-size:2.64583px;letter-spacing:0px;fill:#404040;fill-opacity:1"
   id="tspan2">e</tspan></tspan><tspan
         sodipodi:role="line"
         style="font-style:normal;font-variant:normal;font-weight:300;font-stretch:normal;font-size:2.64583px;font-family:Urbanist;-inkscape-font-specification:'Urbanist Light';text-align:end;letter-spacing:0.264583px;text-anchor:end;fill:#404040;fill-opacity:1;stroke:none;stroke-width:0.204787"
         x="69.707817"
         y="107.88821"
         id="tspan4">simple</tspan></text>
  </g>
</svg>
