<?xml version="1.0" encoding="UTF-8" standalone="no"?>
<!-- Created with Inkscape (http://www.inkscape.org/) -->

<svg
   width="84.317986"
   height="36.473267"
   viewBox="0 0 22.309134 9.650218"
   version="1.1"
   id="svg1"
   inkscape:version="1.4 (86a8ad7, 2024-10-11)"
   sodipodi:docname="dark-logo-full.svg"
   xmlns:inkscape="http://www.inkscape.org/namespaces/inkscape"
   xmlns:sodipodi="http://sodipodi.sourceforge.net/DTD/sodipodi-0.dtd"
   xmlns="http://www.w3.org/2000/svg"
   xmlns:svg="http://www.w3.org/2000/svg">
  <sodipodi:namedview
     id="namedview1"
     pagecolor="#505050"
     bordercolor="#eeeeee"
     borderopacity="1"
     inkscape:showpageshadow="0"
     inkscape:pageopacity="0"
     inkscape:pagecheckerboard="0"
     inkscape:deskcolor="#505050"
     inkscape:document-units="mm"
     showguides="true"
     inkscape:zoom="8"
     inkscape:cx="37.625"
     inkscape:cy="17.4375"
     inkscape:window-width="1920"
     inkscape:window-height="1009"
     inkscape:window-x="-8"
     inkscape:window-y="-8"
     inkscape:window-maximized="1"
     inkscape:current-layer="layer1" />
  <defs
     id="defs1" />
  <g
     inkscape:label="Layer 1"
     inkscape:groupmode="layer"
     id="layer1"
     transform="translate(-59.522987,-96.394361)">
    <g
       id="g2"
       style="fill:#ffffff;fill-opacity:1">
      <path
         style="fill:#ffffff;fill-opacity:1;stroke-linecap:round;stroke-linejoin:round;stroke-miterlimit:4.5;paint-order:markers stroke fill"
         d="m 80.425781,96.394531 c -0.488956,0.0062 -0.820636,0.223729 -1.009765,0.513672 -0.149853,0.22973 -0.168453,0.418315 -0.177849,0.66766 -0.127914,-0.259147 -0.277347,-0.440693 -0.515511,-0.593441 -0.295319,-0.189405 -0.65955,-0.262323 -1.015625,-0.123047 -0.368239,0.144034 -0.590541,0.571116 -0.550781,1.044922 0.03976,0.473806 0.402472,0.963535 1.079362,1.324235 l 0.03035,-0.08609 c -0.634427,-0.338073 -0.883888,-0.848706 -0.878133,-1.261388 0.0068,-0.489825 0.263696,-0.659823 0.449434,-0.727234 0.20118,-0.07302 0.572229,-0.0286 0.760452,0.06278 0.276266,0.13412 0.565112,0.389863 0.667272,0.689078 l 0.0793,-0.01324 c -0.02049,-0.262723 0.139211,-0.740422 0.30555,-0.893301 0.166338,-0.152879 0.463942,-0.30243 0.827586,-0.26124 0.482734,-0.0061 1.102661,0.498406 1.095999,1.403726 -0.0098,1.186227 -0.779793,2.574457 -2.09235,3.599997 -0.03788,0.0301 0.0049,0.0436 0.03523,0.0813 0.02942,0.0373 0.03196,0.0858 0.06986,0.0572 1.341973,-1.04852 2.235453,-2.45945 2.245864,-3.723961 0.01022,-1.245269 -0.818031,-1.769186 -1.40625,-1.761719 z"
         id="path1"
         sodipodi:nodetypes="cscsssccssscczcccccccc" />
      <path
         style="font-size:7.40833px;font-family:Parisienne;-inkscape-font-specification:Parisienne;letter-spacing:0px;stroke-width:4.23333;stroke-linejoin:bevel;stroke-miterlimit:4.5;paint-order:markers stroke fill;fill:#ffffff;fill-opacity:1"
         d="m 65.086466,97.043172 c -0.120579,0.127813 -0.232717,0.261654 -0.336414,0.401525 0.226687,0.125401 0.428053,0.276124 0.604097,0.452169 0.178456,0.173633 0.327973,0.365352 0.448552,0.575158 0.122989,0.209807 0.215834,0.435288 0.278535,0.676444 0.06511,0.238745 0.09767,0.485931 0.09767,0.741557 0,0.226695 -0.02291,0.452175 -0.06873,0.676445 -0.04341,0.22427 -0.113342,0.4389 -0.209806,0.64389 -0.09405,0.20257 -0.21463,0.39187 -0.361735,0.56792 -0.147105,0.17363 -0.32315,0.32556 -0.528133,0.45579 -0.204983,0.12781 -0.438904,0.22789 -0.701765,0.30024 -0.262861,0.0747 -0.558278,0.11213 -0.886251,0.11213 -0.291799,0 -0.569129,-0.0277 -0.83199,-0.0832 -0.262861,-0.0531 -0.514869,-0.11215 -0.756026,-0.17725 -0.185691,0.1254 -0.389468,0.22307 -0.611332,0.293 -0.219452,0.0699 -0.467843,0.1049 -0.745174,0.1049 -0.113343,0 -0.211012,-0.0109 -0.293005,-0.0326 -0.08199,-0.0193 -0.149517,-0.047 -0.202571,-0.0832 -0.05065,-0.0362 -0.08923,-0.0784 -0.115755,-0.12661 -0.02411,-0.0458 -0.03617,-0.094 -0.03617,-0.14469 0,-0.0603 0.01447,-0.11694 0.04341,-0.17002 0.03135,-0.0555 0.07717,-0.1037 0.13746,-0.14469 0.0627,-0.041 0.141076,-0.0736 0.235127,-0.0977 0.09646,-0.0241 0.208601,-0.0362 0.336414,-0.0362 0.176044,0 0.350882,0.0193 0.524515,0.0579 0.176045,0.0362 0.354501,0.0784 0.535368,0.12661 0.176044,-0.15916 0.336413,-0.34967 0.481107,-0.57154 0.147105,-0.22427 0.286976,-0.46784 0.419613,-0.7307 0.135047,-0.26527 0.266478,-0.5426 0.394291,-0.831995 0.130224,-0.289388 0.267683,-0.579982 0.412377,-0.871781 0.147106,-0.291799 0.305064,-0.57757 0.473873,-0.857311 0.171221,-0.279742 0.362941,-0.542603 0.575158,-0.788582 -0.180867,-0.07717 -0.37741,-0.136253 -0.589627,-0.17725 -0.209807,-0.04341 -0.435288,-0.06511 -0.676445,-0.06511 -0.294211,0 -0.57757,0.03014 -0.850077,0.09043 -0.272507,0.06029 -0.526927,0.143486 -0.76326,0.249597 -0.236333,0.106109 -0.452169,0.230304 -0.647506,0.372587 -0.195337,0.142283 -0.36294,0.296623 -0.502811,0.463021 -0.137459,0.163986 -0.244774,0.336413 -0.321944,0.51728 -0.07476,0.178456 -0.112138,0.356912 -0.112138,0.535368 0,0.115755 0.02291,0.225482 0.06873,0.329179 0.04582,0.103697 0.108521,0.195336 0.188102,0.274917 0.07958,0.0772 0.173632,0.13867 0.282153,0.18449 0.108521,0.0458 0.226687,0.0687 0.3545,0.0687 0.09887,0 0.196543,-0.0109 0.293006,-0.0326 0.09887,-0.0241 0.192925,-0.0531 0.282153,-0.0868 0.08923,-0.0337 0.172427,-0.0699 0.249597,-0.10852 0.07717,-0.041 0.144694,-0.0784 0.202571,-0.112135 0.05788,-0.03617 0.102494,-0.06511 0.133842,-0.08682 0.03376,-0.02411 0.05185,-0.03738 0.05426,-0.03979 l 0.115756,0.151935 c -0.113344,0.0748 -0.231511,0.1471 -0.354501,0.21704 -0.120578,0.0675 -0.245979,0.12901 -0.376204,0.18448 -0.130225,0.0531 -0.265272,0.0965 -0.405143,0.13023 -0.139871,0.0313 -0.282153,0.047 -0.426847,0.047 -0.144694,0 -0.282153,-0.0241 -0.412378,-0.0723 -0.130225,-0.0507 -0.244774,-0.12061 -0.343648,-0.20981 -0.09646,-0.0916 -0.173633,-0.20016 -0.23151,-0.325565 -0.05788,-0.125402 -0.08682,-0.264067 -0.08682,-0.415996 0,-0.173633 0.03858,-0.355706 0.115756,-0.546219 0.07958,-0.190514 0.191719,-0.378616 0.336413,-0.564307 0.147105,-0.188102 0.326767,-0.366558 0.538985,-0.535367 0.212218,-0.16881 0.450963,-0.317121 0.716235,-0.444934 0.267684,-0.130225 0.560689,-0.232716 0.879016,-0.307475 0.320738,-0.07717 0.661974,-0.115755 1.023709,-0.115755 0.262861,0 0.510046,0.02532 0.741557,0.07597 0.233922,0.04823 0.452169,0.118169 0.65474,0.209806 0.137459,-0.147106 0.285771,-0.284565 0.444934,-0.412378 z m 0.698148,2.600873 c 0,-0.224275 -0.02532,-0.437699 -0.07596,-0.640271 -0.05065,-0.202571 -0.125405,-0.390673 -0.224276,-0.564306 -0.09646,-0.173633 -0.215835,-0.33159 -0.358118,-0.473873 -0.142282,-0.142282 -0.305063,-0.264066 -0.488342,-0.365352 -0.176044,0.253215 -0.336413,0.520899 -0.481107,0.803052 -0.144694,0.282153 -0.280947,0.567923 -0.40876,0.857311 -0.127813,0.289388 -0.253215,0.576366 -0.376205,0.860934 -0.122989,0.28456 -0.252008,0.55707 -0.387056,0.81752 -0.132636,0.25803 -0.27733,0.49919 -0.434082,0.72347 -0.156751,0.22186 -0.332796,0.41478 -0.528133,0.57877 0.192925,0.0531 0.385851,0.0989 0.578776,0.13746 0.192925,0.041 0.39188,0.0615 0.596863,0.0615 0.424435,0 0.798228,-0.0724 1.121378,-0.21705 0.323149,-0.1471 0.593245,-0.34605 0.810286,-0.59686 0.217041,-0.25321 0.379821,-0.54984 0.488342,-0.88987 0.110932,-0.34003 0.166398,-0.70417 0.166398,-1.092435 z m -5.32112,2.951755 c 0.195337,0 0.373793,-0.0277 0.535368,-0.0832 0.163986,-0.0531 0.315915,-0.13024 0.455786,-0.23151 -0.159163,-0.041 -0.311092,-0.0748 -0.455786,-0.10128 -0.144694,-0.0289 -0.283359,-0.0434 -0.415995,-0.0434 -0.188103,0 -0.329179,0.0253 -0.42323,0.076 -0.09164,0.0483 -0.137459,0.10735 -0.137459,0.17725 0,0.0555 0.03256,0.1037 0.09767,0.1447 0.06752,0.041 0.182073,0.0615 0.343648,0.0615 z m 8.952938,-2.756418 c -0.03135,0.0627 -0.07597,0.144693 -0.133842,0.245978 -0.05547,0.10129 -0.115756,0.21343 -0.180867,0.33642 -0.06511,0.12057 -0.131431,0.24718 -0.198954,0.37982 -0.06511,0.13263 -0.125403,0.26286 -0.180868,0.39067 -0.05305,0.1254 -0.09767,0.24477 -0.133842,0.35812 -0.03376,0.11093 -0.05064,0.20498 -0.05064,0.28215 0,0.0772 0.01447,0.12782 0.04341,0.15193 0.03135,0.0217 0.07114,0.0326 0.119373,0.0326 0.06994,0 0.141077,-0.0205 0.213424,-0.0615 0.07476,-0.041 0.147105,-0.094 0.21704,-0.15916 0.07235,-0.0651 0.142283,-0.13869 0.209807,-0.22066 0.06752,-0.082 0.130224,-0.16399 0.188102,-0.24598 0.06029,-0.0844 0.114547,-0.16399 0.162781,-0.23875 0.04823,-0.0772 0.08923,-0.14228 0.122989,-0.19533 l 0.130225,0.10128 c -0.04099,0.0772 -0.08922,0.16037 -0.144694,0.2496 -0.05547,0.0892 -0.116962,0.17966 -0.184485,0.2713 -0.06511,0.0892 -0.136254,0.17604 -0.213423,0.26045 -0.07717,0.0844 -0.159164,0.15917 -0.24598,0.22428 -0.0844,0.0651 -0.173633,0.11698 -0.267684,0.15554 -0.09405,0.0386 -0.190513,0.0579 -0.289388,0.0579 -0.144694,0 -0.250803,-0.0434 -0.318326,-0.13022 -0.06752,-0.0868 -0.101286,-0.19896 -0.101286,-0.33642 v -0.0615 c 0.0024,-0.0337 0.006,-0.0603 0.01085,-0.0796 -0.120579,0.15193 -0.236334,0.27733 -0.347266,0.3762 -0.10852,0.0989 -0.214629,0.17725 -0.318326,0.23513 -0.101286,0.0579 -0.20016,0.0977 -0.296623,0.11937 -0.09405,0.0241 -0.184484,0.0362 -0.271301,0.0362 -0.09164,0 -0.178456,-0.0157 -0.260449,-0.047 -0.07958,-0.0289 -0.149517,-0.0723 -0.209806,-0.13023 -0.0627,-0.0579 -0.110931,-0.12901 -0.144694,-0.21342 -0.03617,-0.0844 -0.05426,-0.18208 -0.05426,-0.29301 0,-0.13745 0.03135,-0.2942 0.09405,-0.47025 0.06029,-0.17845 0.168807,-0.37017 0.325561,-0.57516 0.132636,-0.17605 0.270095,-0.32436 0.412378,-0.44493 0.144694,-0.12058 0.28577,-0.217044 0.423229,-0.289391 0.139871,-0.07476 0.272508,-0.127813 0.397909,-0.159163 0.125401,-0.03135 0.237539,-0.04703 0.336413,-0.04703 0.221864,0 0.389468,0.03738 0.502812,0.112138 0.113343,0.07235 0.182073,0.184486 0.206189,0.336416 0.04823,-0.0603 0.09888,-0.12056 0.151928,-0.18087 0.05305,-0.06029 0.107314,-0.121782 0.162781,-0.184485 z m -1.110526,1.374588 c 0.03135,-0.0507 0.06994,-0.11457 0.115755,-0.19172 0.04582,-0.0796 0.09405,-0.16037 0.144694,-0.24236 0.05064,-0.0844 0.100077,-0.16519 0.148311,-0.24236 0.04823,-0.0772 0.09044,-0.14228 0.126608,-0.19534 0,-0.0217 -0.0036,-0.0567 -0.01085,-0.1049 -0.0048,-0.0483 -0.02048,-0.0965 -0.04703,-0.14469 -0.02653,-0.0507 -0.06873,-0.09408 -0.126607,-0.130228 -0.05788,-0.03617 -0.138668,-0.05426 -0.242363,-0.05426 -0.07476,0 -0.159163,0.01206 -0.253214,0.03617 -0.09164,0.02171 -0.190514,0.06029 -0.296623,0.115758 -0.103697,0.0531 -0.211012,0.1242 -0.321944,0.21342 -0.110932,0.0892 -0.221864,0.20016 -0.332796,0.3328 -0.166398,0.20016 -0.295417,0.40152 -0.387056,0.6041 -0.08923,0.20016 -0.133842,0.38102 -0.133842,0.5426 0,0.13746 0.03135,0.24357 0.09405,0.31833 0.0627,0.0747 0.151928,0.11213 0.267684,0.11213 0.132636,0 0.256832,-0.0289 0.372587,-0.0868 0.115755,-0.0603 0.224276,-0.13744 0.325561,-0.23151 0.101286,-0.0941 0.197749,-0.19775 0.289388,-0.31109 0.09164,-0.11576 0.180867,-0.22911 0.267684,-0.34004 z m 2.242756,-1.953364 c 0.02411,-0.04099 0.06632,-0.112134 0.126608,-0.213423 0.0627,-0.101286 0.135047,-0.213424 0.21704,-0.336414 0.08441,-0.12299 0.174839,-0.24598 0.271302,-0.368969 0.09887,-0.125401 0.195337,-0.23151 0.289388,-0.318327 l 0.16278,0.09767 c -0.103697,0.171221 -0.209806,0.353295 -0.318326,0.54622 -0.108521,0.190514 -0.215836,0.388262 -0.321945,0.593245 h 1.179256 l -0.07235,0.188102 h -1.204577 c -0.108521,0.217041 -0.211012,0.432875 -0.307475,0.6475 -0.09405,0.21464 -0.17725,0.41962 -0.249597,0.61495 -0.07235,0.19534 -0.129018,0.37862 -0.170015,0.54984 -0.041,0.16881 -0.0615,0.31592 -0.0615,0.44132 0,0.15675 0.03617,0.27009 0.108521,0.34003 0.07235,0.0675 0.161574,0.10128 0.267683,0.10128 0.09405,0 0.190514,-0.0277 0.289388,-0.0832 0.09888,-0.0579 0.195337,-0.13021 0.289388,-0.21704 0.09646,-0.0868 0.186896,-0.18207 0.271301,-0.28577 0.08682,-0.10369 0.162781,-0.20136 0.227893,-0.293 0.06752,-0.0916 0.12299,-0.17122 0.166398,-0.23875 0.04341,-0.0699 0.06993,-0.11334 0.07958,-0.13022 l 0.133842,0.10128 c -0.0844,0.13988 -0.179662,0.28819 -0.285771,0.44494 -0.106109,0.15676 -0.224275,0.30266 -0.3545,0.4377 -0.127813,0.13264 -0.267683,0.24357 -0.419612,0.33279 -0.151929,0.0868 -0.315915,0.13023 -0.49196,0.13023 -0.10852,0 -0.203777,-0.0193 -0.28577,-0.0579 -0.07958,-0.0386 -0.147106,-0.0917 -0.202572,-0.15916 -0.05547,-0.0699 -0.09646,-0.15193 -0.12299,-0.24598 -0.02894,-0.094 -0.04341,-0.19654 -0.04341,-0.30748 0,-0.0723 0.01206,-0.17483 0.03617,-0.30747 0.02171,-0.13264 0.06029,-0.28939 0.115755,-0.47026 0.05547,-0.18328 0.129019,-0.38826 0.220658,-0.61495 0.09405,-0.226683 0.212218,-0.470251 0.3545,-0.7307 h -0.60048 l 0.07235,-0.188102 z m 2.86494,-0.224275 c 0,0.04823 -0.01206,0.09888 -0.03617,0.151928 -0.02411,0.05064 -0.05546,0.09646 -0.09405,0.137459 -0.03617,0.041 -0.07717,0.07476 -0.122989,0.101286 -0.04582,0.02653 -0.09164,0.03979 -0.13746,0.03979 -0.04099,0 -0.07234,-0.01447 -0.09405,-0.04341 -0.02171,-0.03135 -0.03256,-0.06873 -0.03256,-0.112138 0,-0.03859 0.0072,-0.08441 0.0217,-0.137459 0.01447,-0.05305 0.03617,-0.10249 0.06511,-0.148311 0.02894,-0.04823 0.06391,-0.08923 0.104903,-0.12299 0.04099,-0.03376 0.08802,-0.05064 0.141076,-0.05064 0.05064,0 0.09405,0.01929 0.130225,0.05788 0.03617,0.03859 0.05426,0.08079 0.05426,0.126608 z m -0.676444,0.803051 c -0.03135,0.0627 -0.07597,0.145899 -0.133842,0.249598 -0.05547,0.10129 -0.115756,0.21342 -0.180867,0.33641 -0.06511,0.12058 -0.131432,0.24839 -0.198955,0.38344 -0.06752,0.13264 -0.129018,0.26287 -0.184484,0.39068 -0.05305,0.1254 -0.09646,0.24357 -0.130225,0.3545 -0.03376,0.11093 -0.05064,0.20498 -0.05064,0.28215 0,0.0699 0.01447,0.11816 0.04341,0.14469 0.02894,0.0241 0.06994,0.0362 0.12299,0.0362 0.09887,0 0.195337,-0.0326 0.289388,-0.0977 0.09405,-0.0651 0.186897,-0.14954 0.278536,-0.25322 0.09405,-0.10611 0.18569,-0.22668 0.274918,-0.36173 0.08923,-0.13505 0.178456,-0.2713 0.267684,-0.40876 l 0.130225,0.10128 c -0.06994,0.12541 -0.149517,0.25925 -0.238745,0.40153 -0.08682,0.14228 -0.184485,0.27492 -0.293006,0.39791 -0.10852,0.12058 -0.227892,0.22066 -0.358117,0.30024 -0.130225,0.0796 -0.272507,0.11937 -0.426847,0.11937 -0.144694,0 -0.255626,-0.0434 -0.332796,-0.13022 -0.07717,-0.0868 -0.115755,-0.19896 -0.115755,-0.33642 0,-0.16157 0.03738,-0.33038 0.112137,-0.50643 0.07476,-0.17604 0.167604,-0.34967 0.278536,-0.52089 0.113344,-0.17363 0.235128,-0.34003 0.365352,-0.4992 0.132637,-0.15916 0.254421,-0.303856 0.365353,-0.434081 z m 3.418394,0.528128 c 0,0.1037 -0.01809,0.20981 -0.05426,0.31833 -0.03617,0.10611 -0.08199,0.21342 -0.137459,0.32195 -0.05547,0.10611 -0.11455,0.21101 -0.17725,0.3147 -0.0627,0.1037 -0.121784,0.20378 -0.177251,0.30024 -0.05547,0.0965 -0.101286,0.18931 -0.137459,0.27854 -0.03617,0.0868 -0.05426,0.1664 -0.05426,0.23875 0,0.0555 0.01206,0.0928 0.03617,0.11213 0.02411,0.0193 0.05064,0.0289 0.07958,0.0289 0.09164,0 0.194131,-0.0446 0.307475,-0.13384 0.113343,-0.0916 0.227893,-0.20619 0.343648,-0.34365 0.118167,-0.13746 0.235128,-0.28698 0.350883,-0.44855 0.115755,-0.16157 0.220658,-0.31471 0.314709,-0.4594 l 0.130225,0.10128 c -0.01929,0.0289 -0.05426,0.0868 -0.104903,0.17364 -0.05064,0.0844 -0.113341,0.18207 -0.188103,0.293 -0.07476,0.10852 -0.159163,0.22307 -0.253214,0.34365 -0.09164,0.11817 -0.190514,0.22789 -0.296623,0.32918 -0.106109,0.0989 -0.215835,0.18087 -0.329178,0.24598 -0.110932,0.0651 -0.22307,0.0977 -0.336414,0.0977 -0.06511,0 -0.124197,-0.0109 -0.17725,-0.0326 -0.05305,-0.0217 -0.09887,-0.0519 -0.137459,-0.0904 -0.03617,-0.0386 -0.06511,-0.0832 -0.08682,-0.13385 -0.02171,-0.0531 -0.03256,-0.10853 -0.03256,-0.16639 0,-0.094 0.0205,-0.19534 0.0615,-0.30386 0.04341,-0.11093 0.09646,-0.22428 0.159164,-0.34003 0.0627,-0.11575 0.13143,-0.23151 0.206189,-0.34727 0.07476,-0.11817 0.143487,-0.2303 0.206188,-0.33641 0.0627,-0.10611 0.114549,-0.20378 0.155546,-0.29301 0.04341,-0.0916 0.06511,-0.17001 0.06511,-0.23512 0,-0.0748 -0.0205,-0.13746 -0.06149,-0.18811 -0.03859,-0.05064 -0.09405,-0.07596 -0.166398,-0.07596 -0.07717,0 -0.166398,0.03256 -0.267684,0.09767 -0.101286,0.0627 -0.21463,0.15558 -0.340031,0.27853 -0.125401,0.12299 -0.262861,0.27492 -0.412378,0.45579 -0.147105,0.17845 -0.307474,0.38223 -0.481107,0.61133 -0.09887,0.13264 -0.195337,0.26045 -0.289388,0.38344 -0.041,0.0531 -0.082,0.10733 -0.12299,0.16278 -0.041,0.0555 -0.082,0.11093 -0.12299,0.1664 -0.04099,0.0531 -0.07958,0.10371 -0.115755,0.15193 -0.03617,0.0507 -0.06873,0.0941 -0.09767,0.13022 l -0.318327,-0.13022 0.42323,-0.58239 c 0.06029,-0.082 0.121782,-0.17002 0.184485,-0.26407 0.0627,-0.094 0.124195,-0.19052 0.184485,-0.28939 0.0627,-0.10129 0.121783,-0.20257 0.17725,-0.30386 0.05547,-0.10128 0.107315,-0.20015 0.155546,-0.29662 0.06994,-0.14469 0.118167,-0.26407 0.144694,-0.35812 0.02653,-0.0965 0.03979,-0.173629 0.03979,-0.231506 0,-0.06511 -0.01206,-0.107316 -0.03617,-0.126608 -0.02411,-0.02171 -0.05787,-0.03256 -0.101286,-0.03256 -0.04582,0 -0.09887,0.02412 -0.159163,0.07235 -0.05788,0.04582 -0.118169,0.106108 -0.180868,0.180864 -0.0627,0.0724 -0.126606,0.15555 -0.191719,0.2496 -0.0627,0.0916 -0.122989,0.18328 -0.180868,0.27492 -0.05788,0.0916 -0.11214,0.17846 -0.16278,0.26045 -0.05064,0.082 -0.09284,0.14831 -0.126607,0.19895 l -0.130225,-0.10128 c 0.12299,-0.19293 0.233922,-0.36897 0.332796,-0.52814 0.101286,-0.16157 0.197749,-0.30024 0.289388,-0.415991 0.09405,-0.115755 0.184485,-0.204983 0.271301,-0.267684 0.08923,-0.06511 0.183279,-0.09767 0.282153,-0.09767 0.05305,0 0.103696,0.01085 0.151929,0.03256 0.05064,0.02171 0.09405,0.05426 0.130225,0.09767 0.03859,0.041 0.06873,0.09164 0.09043,0.151929 0.02171,0.06029 0.03256,0.130223 0.03256,0.209806 0,0.0627 -0.0072,0.12778 -0.0217,0.19533 0.106109,-0.10369 0.204984,-0.1893 0.296623,-0.25683 0.09164,-0.06752 0.176044,-0.120573 0.253214,-0.159158 0.07717,-0.04099 0.148311,-0.06993 0.213424,-0.08682 0.06511,-0.01688 0.124197,-0.02532 0.17725,-0.02532 0.04582,0 0.09887,0.0084 0.159163,0.02532 0.06029,0.01688 0.116959,0.04823 0.170016,0.09405 0.05305,0.04582 0.09767,0.109726 0.133842,0.191718 0.03859,0.0796 0.05788,0.18328 0.05788,0.31109 z m 2.072742,1.75442 c -0.125401,0.0844 -0.255626,0.15193 -0.390674,0.20257 -0.132636,0.0531 -0.260449,0.0796 -0.383438,0.0796 -0.09164,0 -0.18328,-0.0133 -0.274919,-0.0398 -0.09164,-0.0265 -0.174838,-0.0699 -0.249597,-0.13022 -0.07476,-0.0627 -0.135048,-0.14466 -0.180867,-0.24598 -0.04823,-0.10129 -0.07235,-0.22669 -0.07235,-0.37621 0,-0.18087 0.03256,-0.3545 0.09767,-0.5209 0.06511,-0.16639 0.15193,-0.32073 0.260449,-0.46302 0.108521,-0.14469 0.232716,-0.27612 0.372587,-0.39429 0.139871,-0.11817 0.283359,-0.21825 0.430464,-0.300237 0.149517,-0.08441 0.297829,-0.149517 0.444934,-0.195337 0.147106,-0.04582 0.280948,-0.06873 0.401526,-0.06873 0.118167,0 0.218247,0.01326 0.30024,0.03979 0.08441,0.02411 0.155546,0.05546 0.213424,0.09405 0.05788,0.03617 0.1037,0.07596 0.137459,0.119372 0.03376,0.04341 0.06149,0.0844 0.0832,0.122992 l 0.195337,-0.256834 0.119372,0.07958 c 0,0.0024 -0.01929,0.04099 -0.05788,0.115755 -0.03859,0.07235 -0.08923,0.170019 -0.151929,0.293009 -0.0627,0.12299 -0.136253,0.26768 -0.220658,0.43407 -0.08199,0.16399 -0.16881,0.33883 -0.260449,0.52452 -0.08923,0.18569 -0.180868,0.37741 -0.274919,0.57516 -0.09164,0.19775 -0.179661,0.39188 -0.264066,0.58239 0.219452,-0.1254 0.412377,-0.24597 0.578775,-0.36173 0.166398,-0.11576 0.399087,-0.28988 0.399087,-0.28988 l 0.148679,0.10332 c 0,0 -0.337964,0.25288 -0.540535,0.39275 -0.20016,0.13746 -0.438905,0.28939 -0.716235,0.45578 -0.229099,0.5619 -0.449757,1.02612 -0.661975,1.39268 -0.212217,0.36897 -0.413583,0.66077 -0.604097,0.8754 -0.188102,0.21463 -0.36294,0.36535 -0.524515,0.45217 -0.163987,0.0868 -0.311092,0.13022 -0.441317,0.13022 -0.05305,0 -0.109725,-0.007 -0.170015,-0.0217 -0.0627,-0.0121 -0.120578,-0.0374 -0.173633,-0.076 -0.05305,-0.0386 -0.09646,-0.0917 -0.130225,-0.15916 -0.03617,-0.0675 -0.05426,-0.15434 -0.05426,-0.26045 0,-0.20257 0.05426,-0.40273 0.162781,-0.60048 0.106109,-0.19774 0.261655,-0.39429 0.466638,-0.58963 0.202571,-0.19533 0.450963,-0.38946 0.745174,-0.58239 0.296622,-0.19292 0.631829,-0.38705 1.005622,-0.58239 0.04582,-0.1037 0.08802,-0.20257 0.126608,-0.29663 0.03859,-0.0916 0.07476,-0.17604 0.10852,-0.25321 z m 0.188102,-0.39791 c 0.06511,-0.12299 0.12902,-0.24356 0.19172,-0.36173 0.06511,-0.12058 0.131431,-0.23995 0.198954,-0.35812 0.06994,-0.12058 0.143488,-0.24357 0.220658,-0.36897 0.07958,-0.1254 0.167604,-0.25562 0.264067,-0.39067 -0.0048,-0.0362 -0.01686,-0.0736 -0.03617,-0.11214 -0.01929,-0.0386 -0.04582,-0.0736 -0.07958,-0.10491 -0.03376,-0.03376 -0.07717,-0.06149 -0.130224,-0.0832 -0.05305,-0.02171 -0.115754,-0.03256 -0.188102,-0.03256 -0.08199,0 -0.176044,0.01085 -0.282153,0.03256 -0.103697,0.02171 -0.213424,0.05909 -0.329179,0.11214 -0.115755,0.0531 -0.233922,0.12421 -0.3545,0.21342 -0.118167,0.0892 -0.233922,0.20137 -0.347266,0.33642 -0.166398,0.19774 -0.294211,0.39549 -0.383439,0.59325 -0.08923,0.19533 -0.133842,0.37378 -0.133842,0.53536 0,0.15675 0.03979,0.27612 0.119373,0.35812 0.07958,0.0796 0.188102,0.11937 0.325561,0.11937 0.144694,0 0.297829,-0.0446 0.459404,-0.13385 0.163986,-0.0892 0.325561,-0.20739 0.484724,-0.3545 z m -2.275312,3.63544 c 0.09164,0 0.186896,-0.0338 0.285771,-0.10129 0.09887,-0.0675 0.198954,-0.16037 0.300239,-0.27854 0.101286,-0.11575 0.201366,-0.2508 0.30024,-0.40514 0.09888,-0.15434 0.196543,-0.31953 0.293006,-0.49558 0.09646,-0.17363 0.188102,-0.35208 0.274918,-0.53536 0.08923,-0.18328 0.173633,-0.36294 0.253215,-0.53899 -0.359323,0.18811 -0.666798,0.38344 -0.922424,0.58601 -0.253215,0.20499 -0.460609,0.40032 -0.622184,0.58601 -0.161575,0.18569 -0.278536,0.3533 -0.350883,0.50281 -0.07476,0.14952 -0.112138,0.26407 -0.112138,0.34365 0,0.0989 0.0217,0.17966 0.06511,0.24236 0.04341,0.0627 0.121783,0.0941 0.235128,0.0941 z"
         id="text1"
         aria-label="Dating"
         sodipodi:nodetypes="cccccscccccscccscccscccscccccccccsscsccssccscsccccccccscccscccccscccccccscsscccccscccccccccscscccccccccscscccccccscsccscscccccscccscccccscccccscccccccscccccscscccssccccccccccccccscscccccccsccscccsccccccccccsscsscssscccccccsscsscsccccsscscccccccccccscsccscccccccssccscscscscscccccscccccsccccscscccsscccccscccsccccssscccccssccsscscssccsccccsccccccccccccscscsccccccccccccccsscccccscsccccscsccccccsccc" />
    </g>
    <path
       id="path4"
       style="fill:#be185d;stroke-width:4.23334;stroke-linejoin:bevel;stroke-miterlimit:4.5;paint-order:markers stroke fill"
       d="m 62.633342,103.3021 v 2.74248 h 16.088423 v -2.74248 z m 1.166337,0.4129 c 0.09966,0 0.19575,0.0157 0.288354,0.0476 0.09349,0.0309 0.175425,0.0765 0.24598,0.13642 0.07144,0.0591 0.122611,0.13083 0.153479,0.21549 l -0.260449,0.094 c -0.01499,-0.0432 -0.04397,-0.0809 -0.0863,-0.11265 -0.04233,-0.0326 -0.09351,-0.058 -0.153479,-0.0765 -0.05909,-0.0185 -0.121439,-0.0279 -0.187585,-0.0279 -0.07056,-8.8e-4 -0.136702,0.0108 -0.198438,0.0346 -0.06085,0.0229 -0.111056,0.0545 -0.149861,0.0951 -0.03881,0.0406 -0.05788,0.0878 -0.05788,0.14159 0,0.0662 0.0181,0.1165 0.05426,0.1509 0.03616,0.0344 0.08436,0.0597 0.145211,0.0765 0.06174,0.0159 0.130859,0.0307 0.206706,0.0439 0.121708,0.0194 0.233743,0.0517 0.33693,0.0966 0.10407,0.045 0.187496,0.10487 0.250114,0.17983 0.0635,0.0741 0.0956,0.16541 0.0956,0.27389 0,0.10936 -0.0321,0.20545 -0.0956,0.28835 -0.06262,0.082 -0.146044,0.14586 -0.250114,0.19172 -0.103187,0.045 -0.215222,0.0672 -0.33693,0.0672 -0.101424,0 -0.199003,-0.0158 -0.292489,-0.0475 -0.09349,-0.0318 -0.175273,-0.0768 -0.244946,-0.13591 -0.06967,-0.06 -0.119359,-0.1314 -0.149345,-0.21342 l 0.257865,-0.0961 c 0.01499,0.0423 0.04397,0.0802 0.0863,0.11369 0.04321,0.0326 0.09439,0.058 0.153479,0.0765 0.05997,0.0185 0.12299,0.0279 0.189136,0.0279 0.07056,0 0.136701,-0.0117 0.198437,-0.0346 0.06262,-0.0229 0.112972,-0.0545 0.150896,-0.0951 0.03881,-0.0406 0.05788,-0.088 0.05788,-0.14263 0,-0.0564 -0.02041,-0.10285 -0.06098,-0.13901 -0.03969,-0.0362 -0.09086,-0.0651 -0.153479,-0.0863 -0.06174,-0.0212 -0.125725,-0.037 -0.192753,-0.0475 -0.129646,-0.0212 -0.246145,-0.0519 -0.349333,-0.0925 -0.102305,-0.0406 -0.183424,-0.0973 -0.243396,-0.17054 -0.05909,-0.0732 -0.08888,-0.16847 -0.08888,-0.28577 0,-0.11024 0.03143,-0.20633 0.09405,-0.28835 0.0635,-0.082 0.146926,-0.14571 0.250114,-0.19069 0.104069,-0.0459 0.216621,-0.0687 0.337447,-0.0687 z m 1.250053,0.0305 h 0.274918 v 1.85209 h -0.274918 z m 1.212329,0 h 0.222209 l 0.474906,1.24747 0.472323,-1.24747 h 0.222208 l 0.360185,1.85209 h -0.280603 l -0.239262,-1.23972 -0.443384,1.16944 h -0.185001 l -0.441834,-1.16944 -0.239779,1.23972 h -0.280603 z m 2.243274,0 h 0.637687 c 0.09966,0 0.189494,0.0245 0.269751,0.0739 0.08114,0.0494 0.145645,0.1162 0.19327,0.19999 0.04851,0.0838 0.07286,0.17608 0.07286,0.2775 0,0.10319 -0.02503,0.19682 -0.07441,0.2806 -0.04851,0.0829 -0.113165,0.14905 -0.194304,0.19844 -0.08114,0.0494 -0.170153,0.0739 -0.267167,0.0739 h -0.362769 v 0.74776 h -0.274918 z m 1.644861,0 h 0.275435 v 1.57665 h 0.797367 v 0.27544 h -1.072802 z m 1.625223,0 h 0.275436 v 1.85209 h -0.275436 z m 0.854212,0 h 1.091406 v 0.27492 h -0.816488 v 0.44752 h 0.689364 v 0.27492 h -0.689364 v 0.85473 h -0.274918 z m 1.547709,0 h 0.275435 v 1.85209 H 74.17734 Z m 0.854211,0 h 1.149284 v 0.27492 H 75.30647 v 0.44752 h 0.703833 v 0.27492 H 75.30647 v 0.57929 h 0.874365 v 0.27544 h -1.149284 z m 1.67225,0 h 0.612366 c 0.127881,0 0.247661,0.0244 0.359667,0.0729 0.112007,0.0476 0.210406,0.11392 0.295073,0.19947 0.08467,0.0847 0.150812,0.18306 0.198437,0.29507 0.04851,0.11112 0.07286,0.23075 0.07286,0.35863 0,0.12789 -0.02436,0.24767 -0.07286,0.35967 -0.04762,0.11113 -0.113771,0.20953 -0.198437,0.29507 -0.08467,0.0847 -0.183066,0.15149 -0.295073,0.19999 -0.112006,0.0476 -0.231786,0.0713 -0.359667,0.0713 h -0.612366 z m -7.923548,0.23926 v 0.59015 h 0.334864 c 0.05292,0 0.100962,-0.0133 0.144177,-0.0398 0.0441,-0.0265 0.07881,-0.0618 0.104386,-0.10594 0.02646,-0.0441 0.03979,-0.0938 0.03979,-0.14934 0,-0.0556 -0.01333,-0.10525 -0.03979,-0.14935 -0.02558,-0.045 -0.06029,-0.0804 -0.104386,-0.10593 -0.04321,-0.0265 -0.09126,-0.0398 -0.144177,-0.0398 z m 8.198466,0.0357 v 1.30173 h 0.337448 c 0.08996,0 0.173536,-0.0166 0.251147,-0.0501 0.07849,-0.0335 0.147767,-0.0801 0.207739,-0.14004 0.06085,-0.06 0.10808,-0.12924 0.141594,-0.20774 0.03351,-0.0785 0.05013,-0.16274 0.05013,-0.2527 0,-0.09 -0.01661,-0.1742 -0.05013,-0.25269 -0.03351,-0.0785 -0.08074,-0.14777 -0.141594,-0.20774 -0.05997,-0.06 -0.129246,-0.10653 -0.207739,-0.14005 -0.07761,-0.0335 -0.161189,-0.0506 -0.251147,-0.0506 z" />
  </g>
</svg>
